<svg xmlns="http://www.w3.org/2000/svg" enable-background="new 0 0 1101.31 1631.251" version="1.1" viewBox="0 0 1101.3 1631.3" fill="#DAA520">
    <path d="m24.883 177.93c1.483-2.005 3.038-3.959 4.624-5.893 3.417 5.586 8.511 10.159 10.752 16.409-2.353-0.839-4.634-1.862-6.895-2.926-0.389 0.757-1.166 2.271-1.565 3.028 5.258 2.414 10.649 4.563 15.724 7.335 5.974 4.01 6.414 11.939 10.343 17.493-4.409-0.286-9.013 0.685-13.197-1.176 0.123 0.593 0.379 1.77 0.512 2.353 8.709 3.432 24.89 2.435 31.713 21.678-3.509-0.992-6.65-2.997-10.22-3.785-1.381 1.453-2.077 3.355-2.824 5.176 1.864 0.25 15.618-0.406 20.256 16.092-7.229-1.041-16.48-1.958-26.915-14.854 2.68-2.404 5.34-4.839 7.581-7.652-4.491-1.893-9.596-2.312-13.667-5.156-3.066-2.038-12.881-10.267-12.777-14.025 2.087-1.33 4.368-2.281 6.558-3.396-8.153-6.714-18.081-11.47-18.905-27.191-1.985 0.716-3.959 1.504-5.913 2.302 2.179 5.268 5.361 10.036 8.471 14.782 3.243 2.895 7.427 4.675 10.169 8.184-1.524 0.624-3.049 1.248-4.573 1.872 0.02 2.578-0.982 5.657 1.156 7.683 6.118 7.038 13.892 12.563 22.23 16.665-2.118 1.616-4.317 3.13-6.496 4.655 5.78 9.452 7.983 10.569 21.647 18.056 9.17 5.204 14.392 1.49 22.363 15.396 17.547 35.212 16.335 76.297 10.496 89.155 0.46 3.846 2.496 7.325 2.854 11.202 0.829 13.524 0.849 27.069 1.555 40.572 3.007-5.727 15.8-53.777 29.964-66.956-2.721 7.632-8.716 13.565-11.028 21.371-1.698 5.811-4.266 11.304-6.65 16.859-16.789 54.063-7.937 33.481-19.365 78.096-4.573 35.02-6.619 21.116-10.793 57.646-2.414 7.591-1.79 15.724-4.286 23.304-1.299-4.051-2.138-8.215-2.373-12.46-0.972 1.903-1.923 3.826-3.018 5.678 2.338-27.023 27.609-96.7 22.389-150.4-0.593-6.159 0.164-12.43-1.146-18.527-2.22-8.051-4.542-16.071-6.445-24.204 0.737 0.051 2.22 0.164 2.956 0.225-2.244-4.669-12.715-23.107-18.025-23.058-3.647 4.177 13.245 22.801 14.291 40.501 1.372 9.58 1.211-4.085 3.509 31.836-0.397 11.817-8.556 98.817-15.233 105.82-0.982-5.268-2.22-10.496-2.844-15.826-1.32-9.79-6.005-18.823-7.12-28.634 1.606-24.586 3.025-20.724-1.985-49.145-1.238 2.506-2.588 4.941-4.092 7.304-4.205-13.136 2.464-21.068-19.468-43.304 0.604 4.194 2.128 8.89-1.013 12.511 0.614 0.706 1.228 1.422 1.893 2.107 1.289-1.442 2.373-3.049 3.529-4.583 11.15 9.415 11.682 31.997 14.046 37.033 3.474 5.853 9.909 0.155 3.212 36.511-10.644-18.013-4.379-20.494-4.205-28.767-2.169 2.547-2.803 5.882-3.806 8.982-19.115-17.867-5.65-28.464-8.859-41.667-1.708 5.125-2.455 10.568-4.839 15.458-8.732-12.082-0.118-7.863-12.593-19.877-0.818 0.603-1.627 1.217-2.425 1.841 0.532-1.606 1.166-3.212 1.32-4.91-1.176-4.317-4-8.031-4.798-12.491-0.655-3.795-3.427-6.69-4.665-10.261 14.532 8.147 13.515 12.583 19.775 17.238-2.546-9.144-15.963-20.832-24.818-24.593-4.398 10.442 5.817 28.565 7.161 32.982 1.013-0.133 2.026-0.276 3.038-0.409 2.259 6.472 13.123 20.255 14.291 27.171-2.813-1.882-5.422-4.113-8.45-5.657-0.102-1.064-0.174-2.128-0.235-3.182-1.535 0.031-3.089 0.256-4.614-0.031-2.026-1.35-3.182-3.591-4.532-5.535 1.258-0.563 2.517-1.125 3.775-1.688 1.944 1.473 3.939 2.895 6.046 4.133-1.289-4.297-3.847-8.072-6.987-11.222-0.01 1.514-0.01 3.049 0.01 4.583-2.527-1.453-5.187-2.65-7.939-3.57 4.366 27.23 12.416 19.968 20 36.705-2.077 0.113-4.164 0.205-6.24 0.327-1.691 11.397 20.492 23.912 22.475 25.401 2.916 2.036 6.721 1.811 9.79 3.519 0.887 1.017 6.95 12.434 7.1 16.399 0.825 12.549 8.441 24.03 5.299 44.266-0.941 5.688 0.123 11.478-0.777 17.186-3.765-3.069-4.532-8.082-6.701-12.174-4.164-8.624-11.1-15.386-17.933-21.903-2.384-2.394-5.882-1.371-8.839-1.125 16.987 22.426 35.189 20.305 24.511 159.94-1.146 10.875-0.859 21.882-2.568 32.706-4.074-5.519-9.85-38.854-13.483-46.844 4.685-7.795 8.808-16.951 6.834-26.24-3.795 2.394-4.245 6.793-5.309 10.731-4.061 0.728-1.092-5.989-7.959-21.851-2.015-6.65-3.13-13.586-3.386-20.511-5.028-9.579-12.704-24.483-23.611-24.859 0.102 4.921 0.634 9.913 2.097 14.629 0.9 0.962 1.831 1.893 2.793 2.803 0.194-2.333 0.338-4.665 0.532-6.987 7.744 6.343 14.414 14.946 16.082 25.053-3.396-1.268-5.913-3.887-8.02-6.731-0.737 0.051-2.21 0.133-2.957 0.184 2.271 4.378 6.394 7.161 9.892 10.465 5.35 6.015 4.972 14.598 7.263 21.913-2.824-1.35-5.555-2.875-8.348-4.276 1.729 6.363 7.059 10.373 10.905 15.366 1.136-0.583 2.261-1.166 3.396-1.749-2.916 4.327-5.074 9.166-8.747 12.951 2.312 1.872 5.136 3.581 6.056 6.609 5.04 14.035 11.472 40.022 12.317 46.199 1.668 6.885 0.491 14.302 3.499 20.869 1.606-15.601 4.471-31.069 5.299-46.741 1.33-8.133-0.593-16.542 1.933-24.47 1.412-6.864 0.9-13.944 2.077-20.828 1.872-7.979 0.696-16.235 1.442-24.348 3.649-48.191-2.726-52.466-8.675-78.393 18.995 26.049 11.977 77.291 12.522 82.935 4.19-11.616 3.892-60.407 23.826-100.16 2.13-4.19 11.451-30.841 22.312-40.235 4.328-2.806 23.514-3.82 39.959-31.007-3.12 0.716-6.118 1.841-9.187 2.772 25.625-35.315 19.184-23.634 24.194-40.511-2.476 0.614-5.043 0.921-7.427 1.841-2.987 2.506-4.87 6.056-6.455 9.555 2.087-1.361 4.02-2.916 6.025-4.368-5.985 18.278-22.04 30.445-26.046 38.659 2.189 0.931 4.491-0.409 6.721-0.573-5.125 5.759-10.639 11.765-18.302 13.974 1.831-2.046 3.836-3.918 5.729-5.903-3.141 0.123-6.261 0.44-9.391 0.501 2.506-1.821 5.238-3.284 7.949-4.757-1.238-0.645-2.465-1.279-3.703-1.913 2.987-2.21 5.893-4.532 8.522-7.151-4.338-0.041-8.573 1.033-12.9 1.125 11.046-7.45 18.68-4.929 20-9.627-4.696 0-9.34 0.9-14.046 0.859 6.588-2.169 13.882-3.192 19.539-7.447-3.98 0.123-7.877 1.054-11.846 1.269 5.596-4.501 13.422-4.849 18.885-9.586-7.785 0.419-14.905 4.164-22.66 4.829 5.125-4.992 12.961-4.655 18.486-8.962-5.125-0.215-10.056 1.483-15.171 1.422 10.223-5.561 15.701-2.306 22.148-10.097-2.506 0.266-4.992 0.655-7.499 0.88 4.808-3.294 9.729-6.424 14.394-9.923-4.348-1.637-8.338 0.42-12.102 2.404 4.829-3.274 10.517-4.91 15.693-7.519-0.164-1.504-0.327-2.997-0.481-4.481 1.309-0.082 2.619-0.153 3.928-0.215-1.309 4.951-4.338 9.125-6.496 13.698 5.151-2.479 13.876-13.491 14.793-28.368-7.591 4.245-13.708 10.588-21.186 14.977 0.43-3.703 1.197-7.376 1.514-11.1-2.946 3.049-5.77 6.21-8.757 9.217 1.361 2.527 1.657 5.33 1.054 8.123-0.91-1.933-1.647-3.928-2.384-5.923-4.865 4.758-9.933 5.587-18.762 31.447-0.696-0.01-2.077-0.041-2.772-0.051 0.092-4.583 1.013-9.371-1.074-13.688-2.731 5.074-3.714 10.844-6.24 16.02-1.535 3.887-4.286 7.54-3.529 11.949-4.839 6.322-6.435 14.486-7.315 22.24-0.45 3.355 1.105 6.547 1.197 9.882-1.361 3.92-12.992 22.025-13.545 23.028-1.463 2.005 0.184 4.307 0.583 6.404-1.258-0.368-2.517-0.726-3.775-1.074-3.366 6.772-4.951 14.424-9.371 20.644-2.926-13.105 3.867-25.575 6.762-38.066 1.412-5.381 1.35-11.048 3.059-16.368 2.793-7.314 2.65-15.284 4.859-22.772 20.779-117.73 83.045-123.76 96.071-131.01 0.501-1.565 0.726-3.212 1.043-4.818-5.376-0.586-6.878 1.244-30.639 9.064-5.514 2.281-9.985 6.384-15.079 9.412-24.302 15.583-40.423 44.856-43.365 48.143-0.763-15.64 12.669-53.785 37.555-91.948 3.775-5.872 10.128-9.514 13.514-15.693 29.374 4.497 55.72-9.041 65.544-19.591-4.757-0.123-9.708 0.542-14.199-1.432 5.258-3.908 12.368-3.734 17.729-7.499 5.473-3.765 11.355-7.079 16.02-11.877-3.928 0.153-7.806 0.808-11.724 1.054 3.836-4.102 8.737-7.1 12.225-11.54 6.45-7.949 8.318-4.065 10.895-15.335-5.545 0.072-11.355-0.788-16.634 1.361-26.088 8.825-21.779 12.042-22.302 17.575 5.882-1.841 10.629-6.189 16.695-7.54-2.036 2.056-4.327 3.826-6.629 5.575-0.215 2.332-0.368 4.675-0.471 7.018 3.928-4.143 8.552-7.724 11.059-12.992 1.187 0.327 2.322 0.788 3.478 1.197-3.601 5.852-8.839 10.435-13.166 15.713-1.34 1.698-0.706 4.02-0.972 6.015-13.107 6.13-0.514 1.468-23.805 11.182 0.102 0.696 0.317 2.087 0.419 2.783 2.363 0.604 4.716 1.258 7.049 1.985-0.327 1.238-0.604 2.496-1.064 3.693-6.23 4.02-13.749 4.685-20.798 6.312-1.688 0.45-3.028-1.033-4.522-1.555 5.739-1.166 11.601-1.811 16.818-4.747 0.215-3.407-2.026-5.852-4.624-7.713 1.442-3.089 3.56-6.66 0.992-9.79-2.353 0.839-2.547 3.407-3.263 5.432-1.095-1.78-2.281-3.488-3.56-5.146-1.361 4.399-2.537 9.013-1.811 13.657 1.964-2.343 3.12-5.156 4.153-7.99-0.481 3.714-0.931 7.427-1.34 11.151-0.91-0.849-1.821-1.688-2.731-2.517-1.033 1.289-2.046 2.578-3.069 3.867-0.348-1.279-0.685-2.558-1.033-3.836-3.038-0.88-6.128-1.616-9.248-2.087-0.164 1.708-0.307 3.417-0.501 5.125-0.031-1.749 0-3.489 0.02-5.228-0.818-0.522-2.435-1.575-3.253-2.097-0.849 2.363-1.514 4.778-2.21 7.192-0.573-1.217-1.136-2.435-1.698-3.642-1.77 1.8-3.601 3.55-5.627 5.064 1.084-4.87 3.315-9.534 6.864-13.074-0.133-3.877 1.974-6.997 5.197-8.992-0.174 3.202-1.074 6.291-1.637 9.442 3.847-1.238 7.908-2.056 11.458-4.041 5.571-3.158 10.867-16.76 13.944-19.734 2.936-2.077 6.128-3.775 9.217-5.596-1.739 3.12-3.478 6.251-4.542 9.688 15.323-2.01 11.047-0.879 14.731-13.831 1.248-3.284 3.202-6.251 4.501-9.514-16.701 6.189-23.356 5.837-36.613 17.586-0.092-2.22-0.113-4.45-0.491-6.639-0.624 0.174-1.862 0.522-2.476 0.696-33.3 27.653-26.744 47.895-27.928 54.004-1.003 1.657-2.578 2.875-3.887 4.276-6.292 6.445-10.977 14.209-16.757 21.074-6.179 6.742-7.069 16.563-12.982 23.498-1.499-15.348 12.341-56.561-0.716-110.31 13.736-16.713 5.174-50.155 1.412-56.46-1.197 3.028-2.578 6.005-3.315 9.187 0.881 8.445 5.154-3.852 1.269 26.772-0.685 0.051-2.046 0.164-2.731 0.225 0.286 2.895 0.327 5.8 0.205 8.706-9.291-10.032 0.036-12.917 0.685-29.391-1.381 0.583-2.752 1.187-4.123 1.78 3.444-37.114-10.077-37.686-17.248-48.675-0.46-0.01-1.391-0.01-1.852-0.02-1.146 2.015-2.363 3.99-3.652 5.923-6.547-10.138-10.711-23.57-22.844-28.47-2.343-1.944-4.399-4.225-6.936-5.933-2.015-0.153-4.706 0.471-4.593 2.987 1.018 18.748 10.238 30.739 14.036 37.606-2.578 0.123-5.166 0.184-7.754 0.276 0.792 17.072 15.143 29.72 18.056 37.636-2.752 0.409-5.494 0.818-8.235 1.279 2.261 5.156 4.399 10.465 7.785 14.997 35.632 41.921 35.281 7.187 38.404 45.043 0.35 3.633 4.815 15.591 1.32 28.01-3.158 12.711-3.585 85.391-17.647 94.996 0.526 4.939 7.841 31.834 0.082 46.803-1.11-7.264 2e-3 -33.116-2.578-43.089-1.166-3.611 3.028-5.862 3.141-9.258 0.391-4.732-5.382-52.884-18.383-75.682-2.312-3.734-1.217-8.215-1.156-12.327 0.358-5.494-0.798-10.915-0.931-16.389-0.021-5.747-5.877-17.817-9.698-22.107-0.246 2.711-0.327 5.442-0.501 8.164-6.046-5.688-7.304-14.138-10.731-21.309 0.041 3.939-0.256 8.102 1.504 11.765 3.028 6.24 5.156 12.951 9.156 18.69 1.8 0.133 3.621 0.153 5.401 0.512 1.258 6.946 1.995 14.097 1.442 21.166-3.724-3.016-13.151-14.565-14.189-18.69-1.647-6.189-0.593-12.849-3.304-18.803 0.01 2.363 0.266 4.726 0.082 7.079-0.818 2.107-2.425 3.785-3.621 5.688-3.908-5.228-8.112-10.281-11.478-15.867-0.91-4.317 0.645-8.655 0.951-12.951-1.442-0.44-2.895-0.839-4.358-1.238-0.767 1.391-1.535 2.772-2.292 4.174-3.54-3.284-6.946-6.691-10.384-10.077-1.596-4.706-5.033-8.368-7.427-12.624-0.246-2.046 1.289-3.867 1.903-5.76-0.921-0.378-1.841-0.747-2.772-1.125-1.054 1.003-2.118 1.995-3.192 2.987-2.476-2.721-4.092-6.036-6.107-9.064-2.312-1.698-4.962-2.854-7.499-4.184-2.347 13.038 3.007 13.957 6.989 21.301zm20.225 238.03c1.535-0.788 3.038 1.811 1.719 2.834-1.504 0.747-3.029-1.831-1.719-2.834zm1.432 16.123c-0.44-4.419-1.882-8.644-3.488-12.747 2.118 3.765 4.338 7.529 7.396 10.629 0.082-3.274-0.205-6.537-0.829-9.739 8.64 17.048 12.049 11.469 12.399 24.174-7.997-8.572-15.634-7.28-15.478-12.317zm127.89-47.202c-0.01 0.573-0.02 1.698-0.031 2.261-2.077 0.399-4.143 0.829-6.23 1.176 2.056-1.206 4.164-2.301 6.261-3.437zm17.473-138.3c0.338 1.473 0.675 2.946 0.992 4.43-2.077-0.245-4.164-0.44-6.23-0.788 1.76-1.197 3.489-2.424 5.238-3.642zm-6.138 2.282c-0.072 0.46-0.215 1.402-0.286 1.862-1.575-0.46-3.141-0.921-4.706-1.402 1.667-0.164 3.324-0.317 4.992-0.46zm7.069-36.552c0.368 3.928-1.238 7.642-3.918 10.445 1.115-3.55 2.035-7.203 3.918-10.445zm-77.718-77.606c1.187-3.059 1.422-6.496 3.335-9.248 1.432 3.008 2.087 6.292 2.885 9.504-0.665 0.072-1.985 0.205-2.65 0.276 0.379 2.854 0.645 5.719 0.88 8.593-0.604-0.082-1.821-0.235-2.435-0.307 1.279 4.297 2.414 8.808 1.003 13.238-5.829-14.995-6.94-10.497-3.018-22.056zm-16.787-20.347c4.031 3.683 5.115 9.657 9.759 12.777-0.88-3.591-2.435-6.946-3.908-10.322 1.074 0.164 2.148 0.338 3.222 0.512 0.542 2.302 1.136 4.593 1.678 6.895 0.931-0.02 2.783-0.051 3.714-0.061-0.665 3.049-1.749 5.984-2.527 9.013-0.358 2.864-0.082 5.77-0.317 8.655-8.215-10.771 1.96-9.618-22.158-34.424-1.463-1.616-1.34-3.959-1.688-5.974 2.792 5.43 8.204 8.54 12.225 12.929zm-11.632-17.32c-0.276 0.205-0.839 0.614-1.115 0.808-2.005-2.322-4.184-4.501-5.964-7.008 2.69 1.668 4.9 3.939 7.079 6.2zm3.734 62.741c3.069 0.297 6.148 0.921 9.238 0.471-7.611-10.742-13.647-22.557-18.22-34.884 1.719-0.767 3.448-1.514 5.166-2.261-1.565-6.23-4.982-11.908-5.8-18.312 5.21 3.463 5.93 12.734 14.414 17.841 6.189 3.325 6.404 11.222 8.235 17.207-3.867-2.046-6.66-5.841-10.956-7.069-0.472 9.056 10.346 11.093 13.626 13.729 5.76 6.691 10.189 14.742 11.805 23.478-4.215-2.312-7.693-5.77-12.01-7.898-0.399 0.399-1.207 1.187-1.606 1.575 4.946 6.771 18.551 7.522 20.46 28.092-11.568-4.687-26.538-16.952-34.352-31.969zm34.179 1.31c-1.463-0.061-1.749-0.706-0.829-1.933 1.473 0.061 1.749 0.705 0.829 1.933zm-33.443 97.114c1.432-1.176 3.355 1.269 1.749 2.312-1.442 1.156-3.355-1.259-1.749-2.312zm-63.897-87.508c-0.593 0.798-1.77 2.394-2.363 3.192-0.91-2.036-1.79-4.082-2.537-6.179 1.668 0.941 3.284 1.964 4.9 2.987z"/>
    <path d="m997.61 181.82c4.205-2.997 8.01-6.496 12.061-9.688 4.205-2.445 9.534-3.499 12.368-7.857-5.064 0.788-10.199 2.107-14.435 5.095-1.177-0.297-2.343-0.604-3.488-0.91 5.527-17.488 25.335-22.59 33.841-29.892-3.632-0.112-7.253 0.368-10.854-0.01 5.87-8.585 42.603-25.694 40.47-33.861-4.563-0.849-8.532 2.24-11.816 4.962-2.949 2.613-36.341 22.75-44.828 32.931-3.222 3.949-8.01 6.312-10.742 10.701-3.714 5.606-9.268 9.76-12.614 15.632 4.225-0.307 7.908-2.414 11.141-5.013-1.4 5.869-0.47 11.956-1.104 17.91zm23.55-44.286c0.634-0.02 1.913-0.051 2.547-0.072-0.082 0.532-0.266 1.596-0.358 2.128-0.552 0.072-1.678 0.235-2.24 0.317 0.01-0.593 0.041-1.78 0.051-2.373zm-3.223 4.47c-1.115 3.693-3.662 6.701-7.018 8.563 1.351-3.55 4.072-6.271 7.018-8.563zm-7.805 7.939c0.153 1.78 0.286 3.56 0.44 5.34-0.644-0.133-1.913-0.389-2.557-0.522 0.685-1.616 1.37-3.222 2.117-4.818z"/>
    <path d="m1028.1 1124.4c-6.762 5.657-10.271 14.128-16.869 19.949-4.02 5.545-6.322 12.338-11.499 17.074 1.76-6.077 3.202-12.235 5.279-18.199 1.841-4.01 3.826-7.959 5.105-12.194 1.432-5.033 4.972-9.115 6.404-14.138 2.476-8.941 4.829-17.933 8.082-26.639 3.284-9.534 8.123-18.506 10.629-28.317 0.951-3.99 4.133-6.844 5.974-10.394 2.404-3.898 3.57-8.389 5.893-12.327 2.572-5.193 15.73-21.336 19.038-29.156 3.826-8.389 11.57-13.739 17.534-20.47-23.055-5.752-51.587 45.564-53.186 47.897-2.341-8.06 5.141-25.102 7.263-47.549 1.003-3.785 0.419-7.826 1.882-11.499 2.005-5.954 3.458-12.082 4.614-18.24 1.023-5.565 3.99-10.527 5.033-16.092 2.302-10.926 7.038-21.094 10.629-31.621 0.808-3.366 3.1-6.056 5.432-8.491-0.317-2.701-0.491-5.463 0.256-8.102 1.453-5.453-0.225-11.018-0.102-16.521-2.53-27.099 6.845-39.771 8.644-45.636 0.849-3.611 4.634-4.839 6.967-7.274 1.719-1.381 0.88-3.816 0.737-5.657-4.583-1.115-8.051 2.956-11.621 5.095-6.077 3.407-5.32 11.233-8.614 16.603-2.373-0.031-5.586-1.228-7.028 1.381-10.336 14.32-0.711 12.032-10.025 23.386-0.573-2.302-1.299-4.573-1.473-6.936 1.432-10.189 1.821-20.491 2.997-30.711 0.552-3.458 2.609-6.568 2.455-10.158 0.471-13.023 5.309-25.36 11.325-36.746 8.74-14.266 24.599-20.007 24.583-28.061-5.504 2.629-10.23 6.967-16.614 7.396 2.65-5.043 7.478-8.174 11.488-11.959 3.048-5.749 8.736-9.514 11.458-15.447-4.051 0.245-7.908 1.923-10.598 4.992-4.041 4.552-9.811 7.171-13.524 12.051-7.448 7.99-11.396 18.343-17.616 27.161-1.187-9.074 0.706-18.056 2.077-26.977-0.031-7.949 0.143-16.143 3.141-23.631 1.76-4.89 0.9-10.261 2.373-15.212 1.054-3.714 2.414-7.325 3.499-11.028 0.89-2.834 3.151-5.207 3.161-8.307 0.326-10.994-7.835-18.766 19.048-50.086 2.568-3.325 5.984-6.322 6.516-10.731-7.55 1.432-13.309 6.834-19.345 11.181-10.585 7.702-20.744 30.57-24.214 34.199-0.488-16.176 3.898-24.463 4-30.588 0.409-4.286-0.726-8.726 0.726-12.89 3.008-7.744 0.593-16.818 5.289-24.041-0.919-4.978 4.55-19.893 6.384-28.777 0.665-3.601 3.611-6.271 4.174-9.913 5.768-31.616-1.473-35.33-0.829-42.987 2.507-42.209 17.547-37.944 23.007-60.02-4.419 0.604-9.074 2.036-12.041 5.565-7.667 8.609-13.736 9.944-26.701 41.647-10.574 42.396-7.92 14.555-10.455 54.649 0.133 7.478-1.903 14.864-1.187 22.342 3.379-3.39 5.692-24.828 6.005-30.588 0.245-4.43-0.624-9.166 1.626-13.227 5.876 13.718-6.245 51.289-7.54 56.9-1.606-1.698-4.685-2.926-4.174-5.698 0.798-13.023-1.309-25.995-0.624-39.007-0.644-11.949 1.207-23.836 0.911-35.795 0.416-13.466-1.802-21.12 4.072-46.475 0.849-3.898 3.069-7.386 3.376-11.417 1.177-9.483 4.9-18.731 11.314-25.882 2.629-4.358 7.806-7.939 6.813-13.637-8.309 4.86-14.79 14.864-16.409 9.442 0.729-7.545 16.1-38.131 28.399-46.915 0-0.685 0.01-2.056 0.02-2.742-4.706 2.189-7.56 7.581-12.818 8.471-3.304 0.634-4.01-3.417-3.141-5.77 3.949-14.481 26.22-27.405 28.133-32.931-4.501 0.276-7.182 5.473-11.56 5.136-2.041-7.615 7.151-9.052 15.509-27.161-8.924 3.033-4.557 0.729-15.713 14.823-27.503 31.669-28.062 62.015-37.043 101.98-5.607 37.555-4.324 50.574-7.857 54.935-5.555-10.087 0.622-76.141 0.665-77.155-0.509-6.669 3.624-26.529 3.673-29.483 0.771-21.087-2.931-25.29-0.327-39.232 0.849-2.885-1.35-5.534-1.197-8.389 3.744-20.257-4.63-48.842 9.279-87.907 1.494-3.928 5.678-6.384 6.291-10.701 0.995-5.113 1.87-30.102 11.253-45.115 5.667-10.066 15.928-16.143 23.478-24.593 1.054-1.391 0.655-3.325 0.992-4.941-21.003 9.361-36.124 25.67-40.828 36.572-0.563-1.575-1.166-3.141-1.76-4.696-17.898 16.267-16.627 23.42-21.432 39.693-1.565-1.309-2.997-2.752-4.44-4.153-2.486 2.404-4.747 5.483-4.675 9.125-0.22 60.87-4.31 1.192-4.614 78.874-0.092 3.611 1.125 7.151 0.777 10.752-1.187 8.573-2.148 17.176-2.752 25.8-1.207-3.335-1.974-6.813-2.537-10.302-2.532-42.466-18.567-69.375-11.908-106.63 7.711-20.388 6.811-10.223 8.706-21.105-4.082 2.394-7.744 5.524-12.266 7.089-0.18-11.152-1.696-8.838 12.552-33.902 4.072-5.852 10.486-9.412 15.877-13.913-9.35-0.737-16.972 5.78-24.399 10.465 0.174-2.107 0.399-4.215 0.604-6.322-1.35-0.379-2.69-0.757-4.02-1.125-0.87 2.68-1.698 5.402-1.831 8.235-1.115 1.064-2.22 2.128-3.315 3.192 1.586 6.729-2.461 17.517-2.128 28.235-0.532-0.01-1.596-0.041-2.128-0.061 0.737-12.675 2.557-25.34 1.719-38.066-2.916 1.217-4.542 3.939-4.982 6.977-5.738 38.661-3.688 39.277-2.118 49.841-0.632 20.171 16.246 56.895 17.432 70.362-6.465-6.414-9.729-15.222-13.974-23.13-17.973-34.497-27.355-41.805-33.555-54.587-1.013-9.084 0.481-18.179 1.135-27.233 1.166-0.614 2.333-1.207 3.509-1.821-1.268-4.358-1.432-8.992-3.212-13.207-12.929-36.084-61.734-36.536-57.155-75.252 0.409-2.281-0.829-4.327-2.588-5.647-7.519 3.034-5.462 5.162-5.954 8.716 0.119 14.053-6.43 4.887 5.688 35.161 4.919 9.856 20.802 25.007 22.475 27.56 3.519 5.708 10.465 7.662 14.527 12.88 1.443-0.604 2.875-1.217 4.389-1.698-0.542 3.601-4.174 5.647-5.933 8.675 1.76-0.174 3.529-0.378 5.299-0.593-0.251 17.03 2.644 41.158 9.545 62.107-13.314-8.863-22.583-24.338-36.153-32.204-13.046-12.548-49.451-34.464-61.38-20.522 6.813 2.69 14.312 1.667 21.319 3.448 5.217 1.811 10.118 4.46 15.447 5.974 2.557 0.624 4.256 2.691 5.667 4.777-4.286 0.235-8.583 0.164-12.869 0.307-0.164 1.095-0.307 2.189-0.45 3.284 10.103-1.166 27.514 5.085 37.166 9.197 0.072 0.542 0.225 1.627 0.307 2.169-4.153 0.593-8.358 0.563-12.532 0.675-0.041 0.583-0.123 1.749-0.174 2.343 29.424 10.12 56.621 37.724 68.286 58.598 19.408 40.746 8.223 4.248 29.493 71.825 0.91 2.425-0.184 4.89-0.696 7.274-14.533-26.631-17.75-37.98-41.739-66.27-2.639-3.141-6.24-5.33-8.563-8.747-4.786-6.972-21.056-19.657-27.222-26.015 0.522 2.343 1.003 4.685 1.401 7.059-6.633-2.852-21.311-12.542-23.846-15.304-2.762-3.161-6.834-4.409-10.742-5.432 9.169 13.492 11.664 10.516 24.706 23.386 1.453-0.696 2.926-1.371 4.43-2.015-0.031 1.637-0.072 3.284-0.133 4.921 1.504-0.532 2.977-1.309 4.593-1.494 10.531 2.913 8.951 5.992 24.03 18.598 31.188 26.017 59.797 90.89 55.467 100.65-8.57-31.168-28.882-72.367-56.879-95.59 2.726 5.646 16.267 20.203 20.389 28.296 5.263 6.5 33.327 55.81 31.539 72.94-5.381-6.916-6.118-16.031-9.002-24.03-1.103-2.24-17.788-37.928-26.148-47.478-0.862-1-24.962-33.959-35.57-41.728 0.63 2.386 49.547 63.192 53.207 82.403 12.289 32.124 5.796 23.701 20.153 53.524 1.893 4 2.557 8.542 5.187 12.204 8.34 11.312 13.689 50.096 11.294 58.056-3.33-8.515-7.041-47.83-34.844-73.35-3.771-3.25-24.417-14.957-26.833-11.621-0.164 2.793 0.911 5.442 1.698 8.082 23.246 1.215 19.328 5.012 32.225 16.511-4.082-1.79-8.563-2.23-12.961-2.118 3.701 8.039 20.928 11.968 24.235 25.268-6.421-2.263-10.383-4.74-11.488-1.913 2.69 4.88 6.67 8.9 9.995 13.36 21.001 23.984 26.626 99.371 25.227 106.55-6.88-7.016-17.842-31.576-28.46-37.626 0.092 5.698 3.376 10.527 5.862 15.437 7.978 13.863 27.824 87.267 27.969 95.539 0.532 20.673 9.066 46.556 9.32 49.176 0.589 9.154 7.427 58.004 7.427 58.004-0.777 3.816-1.657 7.867-0.235 11.662 2.005 4.992-1.064 10.046-1.207 15.11-1.238 6.302 2.772 12.46 0.552 18.68-1.995 5.35-1.974 11.683-6.148 15.969 2.686-26.151 2.153-19.897 1.258-26.128-1.381 0.133-2.762 0.266-4.123 0.409-1.013-5.156 0.113-10.721-1.852-15.642-5.095-7.12-4.245-16.348-4.194-24.644-0.665-0.409-1.32-0.808-1.954-1.207-0.88 1.197-1.76 2.404-2.629 3.611-5.163-16.7-3.154-21.432-10.343-27.908-1.309 7.038 2.302 13.534 4.041 20.163 13.554 48.907 22.199 124 12.839 186.74-1.197 0.246-2.384 0.512-3.55 0.778 1.429 16.037 9.308 23.928 7.212 63.007-0.164 10.598-0.706 21.401-4.583 31.396-0.972 1.79-2.813 2.875-4.358 4.123-0.972-6.629 0.91-13.043 2.834-19.284 3.772-40.506-2.09-64.341-4.368-80.357 0.951 0 2.854 0.02 3.806 0.02-5.447-24.409-8.652-30.418-16.89-40.531 0.072 2.517 0.256 5.064 1.013 7.499 14.277 47.26 11.153 122.42 6.476 141.6-2.036 4.767-2.885 9.872-3.529 14.997-0.05-3.201-14.983-56.39-15.274-57.391-0.696 0.061-2.097 0.194-2.793 0.266-2.506 20.97 2.407 6.493 0.665 40.654-1.82 63.353-25.073 131.96-26.701 144.98-10.096 23.271-1.517 14.591-22.322 58.731 6.772-6.66 8.757-16.614 15.253-23.365-0.25 11.002-10.267 19.615-12.961 35.877-2.118 3.069-4.89 5.719-6.292 9.258 23.993-17.181 19.384-31.095 32.266-31.928 0.561-1.019 14.208-22.836 20.777-48.593 0.546-1.419 10.146-20.518 11.355-27.458 0.614-4.399 4.552-7.028 6.517-10.752 1.78-2.609 2.302-5.821 3.887-8.491 21.416-23.722 26.6-14.075 37.197-18.179 0.829-1.299 1.504-3.478-0.143-4.419-10.14-5.615-6.532-3.29-19.376-1.586 1.016-5.411 11.857-13.253 16.317-14.343 9.915-2.509 7.441-2.69 19.857 2.742 2.742 1.217 5.688-0.225 8.43-0.757-1.003-2.261-1.893-4.593-3.355-6.578-5.207-0.409-10.363-1.197-15.335-2.854 3.417-4.276 9.033-3.274 13.841-3.877 4.951-0.399 10.23-1.401 14.915 0.88 4.317 1.668 10.261 4.062 13.811-0.286-6.67-3.662-14.496-3.141-21.81-4.01-17.965-1.234-19.55-2.523-40.84 12.388zm32.972-460.32c1.35 0.655 1.361 1.34 0.031 2.056-1.371-0.665-1.381-1.35-0.031-2.056zm-10.343 12.665c1.893 0.092 1.606 3.376-0.205 3.396-1.984-0.112-1.626-3.355 0.205-3.396zm-1.473 4.031c1.688 4.859 1.238 10.199 0.266 15.171-1.094-4.982-0.931-10.159-0.266-15.171zm4.542-284.86c0.481 1.228 0.9 2.496 1.238 3.795-1.279 0.737-2.568 1.422-3.877 2.056 0.532-2.087 0.471-4.685 2.639-5.851zm-9.687-179.22c1.084-0.501 2.21-0.951 3.366-1.34-0.859 2.711-2.333 5.156-4.471 7.038 0.245-1.913 0.44-3.867 1.105-5.698zm-3.949 11.212c1.146-0.706 2.486-1.095 3.662-0.153-1.217 3.898-2.936 7.611-4.041 11.539 0.317-3.785-0.327-7.631 0.379-11.386zm-7.734-0.348c0.573-0.02 1.719-0.061 2.292-0.082 1.576 6.036-0.143 12.02-0.788 18.025 0.45 4.644-0.839 9.135-1.811 13.627-0.317 0.982-1.576 1.228-2.179 2.005 1.311-8.811-0.557-10.498 2.486-33.575zm-56.726 15.724c2.056 6.21 1.555 12.869 2.056 19.324-0.624-0.133-1.882-0.399-2.506-0.532 0.522-6.26-0.962-12.613 0.45-18.792zm3.99 34.393c-0.931-1.872-1.586-3.867-2.026-5.893 2.097 1.331 2.21 3.643 2.026 5.893zm0.378-19.58c3.438 0.103-1.575 3.028 0 0zm-99.988-108.26c4.931 5.821 6.67 13.504 9.156 20.542-6.384-4.603-8.491-13.094-9.156-20.542zm14.127 19.652c0.102-1.371 0.225-2.752 0.379-4.113 2.169 1.841 4.01 4.031 5.289 6.598-1.934-0.756-3.806-1.615-5.668-2.485zm22.67 29.453c-6.67-3.939-14.21-8.215-17.207-15.785 4.87 3.13 9.371 7.069 15.11 8.552 0.061-1.391 0.215-2.783 0.153-4.174-6.945-6.269-8.928-3.407-14.875-14.179 7.028 3.621 13.749 8.286 18.895 14.353 0.451 3.693-1.401 7.55-2.076 11.233zm84.91 936.23c0.818-4.256 2.332-8.327 3.345-12.522 0.532-0.021 1.616-0.041 2.148-0.051-2.741 3.827-2.404 8.962-5.493 12.573zm12-35.048c-0.031-2.926 1.054-5.616 2.844-7.877-0.011 2.895-1.023 5.627-2.844 7.877zm7.682-17.309c-1.831 1.156-2.905-2.067-1.34-2.926 1.791-1.115 2.926 2.036 1.34 2.926zm7.775-91.068c0-4.225 0.245-8.43 0.297-12.644-1.34 0.174-2.67 0.358-3.99 0.552 0.051-1.504 0.112-2.987 0.194-4.471 1.105 0.778 2.22 1.555 3.366 2.343 0.45-2.148 2.066-4.338 1.033-6.537-2.302-6.639-5.33-13.289-4.91-20.481 1.146-0.379 2.312-0.737 3.499-1.084 1.181 9.799 5.502 20.648 0.511 42.322zm-2.516 33.012c-0.634-0.153-1.903-0.45-2.547-0.593 0.563-1.903 1.238-3.754 1.903-5.606 0.234 2.046 0.46 4.123 0.644 6.199zm0.89-127.75c7.9-5.629 0.716-1.688 10.598-21.606 0 5.391-0.931 10.762-2.987 15.765 0 1e-3 -6.741 26.198-6.742 26.199-6.268-7.024 0.063-4.246-0.869-20.358zm7.826 26.24c2.159 2.558 2.701 5.852 2.619 9.115-2.179-2.557-3.202-5.78-2.619-9.115zm-6.517 2.026c-1.299 0.982-3.13-1.177-1.667-2.138 1.278-1.023 3.079 1.146 1.667 2.138zm8.368 46.056c-2.803-10.077-3.386-20.624-6.363-30.659 0.911-0.102 2.711-0.307 3.621-0.409 0.196 0.999 4.066 24.049 2.742 31.068zm-5.084-37.34c-0.982-1.473-0.072-3.059 0.419-4.491 2.834 5.013 5.176 10.455 5.913 16.225-3.335-3.151-4.266-7.806-6.332-11.734zm5.647-11.949c-0.225-1.023-0.43-2.026-0.624-3.018 0.645 0.041 1.944 0.113 2.588 0.153 0.123 1.156 0.256 2.333 0.409 3.509-0.593-0.163-1.78-0.49-2.373-0.644zm5.964-39.723c1.35-6.936 2.506-14.107 6.087-20.307 3.52-5.577-1.876-6.205 8.747-15.488-1.146 3.898-3.263 7.601-3.161 11.775-0.317 2.486 0.501 5.565-1.535 7.509-1.125 1.309-2.506 2.424-3.355 3.939 0.102 3.376 0.952 6.711 0.624 10.107-0.655 4.839 3.243 8.869 2.65 13.729-2.527-3.969-1.923-9.463-5.954-12.45-0.583 5.637 1.136 11.141 1.207 16.767-1.473-1.391-2.793-2.905-4.102-4.419 0.757 3.325 1.555 6.639 2.302 9.964-1.852-1.575-3.652-3.222-5.534-4.737 0.266 6.199 2.026 12.235 2.056 18.465-1.545-2.854-2.711-5.882-4.174-8.767-1.197 1.453-2.373 2.926-3.57 4.389 0.351-15.697 6.183-22.316 7.712-30.476zm-6.455-175.02h1.667c-0.021 1.084-0.021 2.179-0.01 3.284h-1.678c-0.01-1.105 1e-3 -2.199 0.021-3.284zm-4.45-24.705c-1.78-3.673-1.852-7.785-0.45-11.58 2.01 4.451 8.194 23.681 5.115 33.074-2.445-6.978-1.555-14.691-4.665-21.494zm12.542 124.34c-0.46-0.338-1.381-1.013-1.841-1.34 1.023-2.414 1.985-4.859 3.335-7.11-0.236 2.854-0.85 5.657-1.494 8.45zm-0.757-160.7c-0.604-0.041-1.811-0.112-2.414-0.143 2.512-10.586 1.787-27.049 5.35-34.619 0.83 4.781-2.923 27.132-2.936 34.762zm3.499-39.969c-0.655-4.235 0.9-8.297 1.974-12.317 0.593-0.072 1.77-0.225 2.363-0.297-1.197 4.276-1.688 8.9-4.337 12.614zm4.081-63.836c-0.031-5.156-1.534-10.158-1.463-15.314 0.737-0.184 2.22-0.542 2.956-0.726-2.414 37.102 6.509 6.827-3.58 59.508-1.391 4.358-3.703 8.389-4.593 12.91-2.373 7.488-2.711 15.488-5.483 22.864-6.664-11.967 12.237-30.699 12.163-79.242zm-12.583 83.242c2.107 0.082 1.013 4.092-0.88 3.171-1.063-0.889-0.398-2.864 0.88-3.171zm-0.705 162.39c0.235-7.008-1.647-14.107 0.143-21.013 11.328-47.118-5.59-122.73-9.432-130.37-2.015-4.01-2.558-8.593-2.148-13.023 14.925 17.948 28.64 135.89 11.437 164.41zm-2.005 9.473c-0.266-3.202 0.317-6.373 1.432-9.35 0.951 3.253 0.787 6.639-1.432 9.35zm-7.939-233.85c0.464 15.09-2.884 16.424-0.951 28.562 0.389 2.271 0.368 4.593 0.061 6.895-3.072-4.139-3.499-5.778-1.964-31.549-1.709-49.409-8.589-56.236-7.703-73.288 0.737-0.02 2.22-0.041 2.956-0.051 10.456 67.183 6.416 49.868 7.601 69.431zm-2.373 74.332c-0.42-0.061-1.269-0.205-1.688-0.276 0.501-1.586 1.013-3.171 1.586-4.737 0.03 1.668 0.061 3.335 0.102 5.013zm-5.044-46.168c-3.724-12.542 0.102-25.657-0.788-38.445-1.361-13.473-3.161-26.905-4.798-40.347 9.747 19.492 7.045 73.434 5.586 78.792zm-7.365-31.581c0.511-0.123 1.524-0.368 2.036-0.491 1.74 57.257 4.883 44.699 1.862 56.685-0.767-1.422-2.302-2.67-1.995-4.43 1.685-14.861-6.258-21.39-1.903-51.764zm-3.52-97.379c-1.043 0.338-2.087 0.685-3.11 1.033 1.258 6.568 2.875 13.064 3.366 19.765-0.481-0.297-1.453-0.88-1.934-1.166 0.368-1.197 0.757-2.384 1.156-3.56-4.386-5.492-2.791-4.6-12.593-28.869 1.678-2.864 3.601-5.667 6.476-7.468-1.164-7.153-2.377-6.327 0.818-19.417-0.35 24.632 10.555 23.531 12.215 33.882 0.516 3.401 3.192 28.511 3.079 33.78-1.391-1.146-3.437-2.056-3.417-4.123-2.261-13.238-1.32-27.683-8.89-39.416-0.572 5.339 0.635 10.699 2.834 15.559zm-7.907-58.271c0.02-3.059 0.041-6.118 0.235-9.166 1.013 3.12 1.77 6.312 2.609 9.483-0.717-0.082-2.139-0.235-2.844-0.317zm8.398 11.13c3.437 6.107 8.45 12.082 8.051 19.519-2.967-4.604-4.839-9.852-8.225-14.199-3.12-4.072-5.023-8.921-5.954-13.944 4.369 0.665 4.174 5.566 6.128 8.624zm-7.744 2.527c-0.44 3.202-1.954 6.097-4.153 8.44 0.286-3.263 1.974-6.087 4.153-8.44zm16.655-28.818c2.097 3.949 1.811 8.593 0.798 12.818-3.13-5.545-3.581-12.01-6.026-17.81-1.376-5.015-7.87-13.804-6.864-27.539 6.342 9.872 6.885 22.137 12.092 32.531zm-7.867-47.795c5.131 5.242 9.756 25.299 10.373 34.025-5.852-8.307-5.79-18.936-9.76-28.04-1.022-1.852-0.767-3.969-0.613-5.985zm3.478 162.11c1.852 0.102 1.78 3.355-0.051 3.437-1.903-0.092-1.821-3.376 0.051-3.437zm10.547-261.07c0.737 0.082 1.483 0.194 2.251 0.327-3.073 6.887-0.035 26.682 0.041 27.682-1.565-1.483-3.192-2.946-4.266-4.829 0.46-2.015 1.371-3.918 1.77-5.954-1.889-12.24-3.485-7.359 0.204-17.226zm-7.376 15.795c0.593 4.563 2.22 8.91 2.762 13.473 0.777 0.532 1.565 1.054 2.373 1.596-1.033-0.031-3.089-0.092-4.123-0.112 1.432 5.616 3.816 11.325 3.263 17.197-3.611-3.366-4.266-8.614-4.951-13.248-0.409-3.826-2.097-7.407-2.312-11.263 0.636-2.661 2.017-5.086 2.988-7.643zm-5.953 19.059c6.042 6.904 2.758 12.448 6.261 15.591 4.924 5.553 4.76 3.729 4.9 13.483-5.8-2.803-5.79-9.974-8.46-15.038-2.466-4.246-2.978-9.218-2.701-14.036zm-3.489 16.593c1.678 4.644 4.767 8.542 6.956 12.9 1.534 6.138 4.941 11.499 7.294 17.32-11.115-12.26-9.719-13.245-13.811-23.959-0.869-1.985-0.654-4.174-0.439-6.261zm2.598 23.478c3.415 18.768 8.501 13.303 12.378 30.925-0.644-0.072-1.933-0.205-2.578-0.276-9.883-27.079-9.11-11.863-12.593-30.833 0.696 0.04 2.098 0.132 2.793 0.184zm-2.977 14.424c1.453 3.151 2.844 6.332 4.215 9.524-0.9-0.082-2.68-0.246-3.57-0.327-0.951-3.049-1.801-6.128-2.772-9.166 0.532-0.01 1.596-0.021 2.127-0.031zm6.63 71.948c1.893 4.747 2.414 9.872 3.57 14.823-3.836-5.514-5.739-11.969-8.276-18.097-1.729-3.243-1.115-7.028-1.872-10.496-3.826-4.573-9.217-8.747-9.893-15.069 3.834 2.871 5.973 2.277 16.471 28.839zm-90.24-191.24c0.358-6.384-1.893-13.105 1.146-19.151 4.89 8.814 2.865 31.97 0.164 38.854-2.036-6.373-1.545-13.125-1.31-19.703zm58.23 183.95c0.634-0.501 1.903-1.494 2.537-1.995 0.338 1.657 0.87 3.274 1.217 4.941-1.33-0.89-2.465-2.015-3.754-2.946zm-19.335-78.332c-3.703-4.685-5.33-10.711-9.616-14.966-2.353-2.466-4.88-4.849-6.22-8.041-3.345-6.332-8.399-11.54-12.112-17.637-4.257-6.632-10.781-25.259-7.816-33.606 3.826 7.478 3.182 17.146 9.575 23.263 0.672 9.909 20.794 27.66 24.521 39.467 2.384 4.205 5.268 8.235 6.066 13.146 0.951-0.133 1.913-0.256 2.895-0.379 1.688 5.32 2.639 10.895 5.054 15.979 4.706 10.21 6.813 21.35 11.048 31.744-0.131-18.668-14.042-47.413-14.424-48.603-7.217-21.93-39.57-51.238-41.207-75.457-0.206-2.123 1.22-24.708 2.026-27.846 1.625 13.258-4.476 34.095 18.363 60.47 26.815 30.102 45.219 92.534 42.056 133.53-1.273-2.276-15.201-72.951-30.209-91.067zm43.058 215.49c-1.909-36.389-3.379-41.792-5.504-50.445-2.759-16.422-14.375-23.234-8.982-39.693 2.199-4.583 4.44-9.156 6.568-13.79 2.711 7.714-3.304 14.537-2.946 22.158-0.184 2.701 1.074 5.187 1.78 7.734-0.767 1.729-3.12 3.437-1.903 5.463 1.453 0.737 3.008 1.228 4.552 1.78 3.521 15.847 8.731 21.327 10.793 57.8 0.419 9.054 4.194 17.544 4.716 26.598-0.818 0.46-2.445 1.401-3.263 1.872-1.299-6.68-2.24-13.554-5.811-19.477zm17.678 188.07c0.593-0.184 1.801-0.532 2.404-0.716 0.194 3.192 0.747 6.353 1.125 9.534-1.176-2.946-2.261-5.923-3.529-8.818zm-21.514-107.07c4.123 12.327 9.821 24.266 11.775 37.217 0.318 1.001 12.018 53.22 10.926 65.81-3.683-8.685-4.757-18.189-6.476-27.386-0.89-4.409-2.813-8.655-2.67-13.217-0.041-3.171 0.747-6.568-1.023-9.432-3.519-7.089-2.987-15.345-6.384-22.455-2.721-6.588-2.905-13.872-5.064-20.603-2.292-3.867-3.99-8.02-4.808-12.45-0.839-4.556-8.73-19.506-8.491-26.107 6.649 4.958 8.264 9.619 26.394 44.777 2.261 7.1 2.435 15.018 6.414 21.524 0.992-3.662 1.453-7.427 2.005-11.161 4.218 18.259-2.334 10.403 5.565 52.286 6.62 37.37 4.264 45.222 5.371 57.902-0.573 0.072-1.719 0.215-2.292 0.286-1.453-22.534-12.65-125.77-31.242-136.99zm32.644 149.18c-0.46 0-1.401-0.01-1.872-0.02 0.031-2.588-0.041-5.176 0.184-7.754 0.44-0.194 1.33-0.583 1.77-0.777 0.174 2.843-0.021 5.697-0.082 8.551zm-3.734 65.953c0.327 2.169 0.624 4.358 0.89 6.557 1.095-0.174 2.21-0.327 3.325-0.481-4.39 23.879-5.349 9.554-6.189 27.14 0.706-0.143 2.108-0.43 2.813-0.573 1.422-5.882 3.069-11.734 5.483-17.289 0.308 4.81-3.285 28.513-3.509 29.514-0.368 1.872-2.384 2.568-3.703 3.652-0.481 5.995-2.087 11.846-4.583 17.309-1.632-7.996 2.467-16.811 2.905-30.864-1.627-0.072-3.243-0.123-4.839-0.164 3.023-26.332 0.765-18.253 7.407-34.801zm-8.378 132.18c0.849 3.355 1.698 6.711 2.179 10.158-1.667-3.417-2.844-7.028-4.194-10.557 0.501 0.102 1.513 0.297 2.015 0.399zm-38.537 92.316c0.512-0.143 1.524-0.419 2.036-0.552 0.481 2.036 0.982 4.082 1.463 6.158-1.197-0.317-2.373-0.614-3.54-0.89 0-1.586 0.041-3.161 0.041-4.716zm-24.041 156.81c2.496-11.642 6.916-22.803 8.91-34.578 8.062-29.543 12.557-77.888 12.859-79.436 0.645-0.072 1.934-0.215 2.578-0.286-4.451 70.42-22.989 113.97-29.309 133.96-0.716 4.399-2.598 8.696-6.158 11.529 1.903-10.936 7.632-20.737 11.12-31.192zm-0.214 46.547c-0.726 0-2.189 0.01-2.916 0.02 1.78-4.082 3.366-8.317 5.933-11.979 5.657-6.332 4.409-15.795 9.064-22.68 3.141-4.747 4.921-10.158 7.376-15.243-2.061 13.801-13.527 37.827-19.457 49.882zm27.621-83.467c-5.543 28.813-44.374 102.07-50.557 105.69 65.899-134.94 48.36-212.54 49.442-220.07 5.418 7.619 1.651 9.35 2.885 22.353 7.479 57.536-24.943 140.75-25.176 141.75 20.722-29.535 28.588-108.3 39.253-131.15 12.677-38.187 19.974-41.032 25.575-49.36-1.944 4.481-4.266 8.788-6.629 13.074-2.302 3.836-3.141 8.297-5.105 12.297-16.231 34.091-22.112 75.736-26.261 87.406-2.087 5.809-1.872 12.08-3.427 18.013zm4.327-8.982c0.716-3.847 2.834-7.284 3.243-11.182 0.767-4.849 0.726-10.158 4.123-14.087-1.044 8.696-3.172 17.515-7.366 25.269z"/>
    <path d="m58.622 186.2c-0.297-1.995-0.471-4.133-1.78-5.78-2.302-3.171-4.215-6.731-7.161-9.361-2.946 0.358-5.289 2.455-7.836 3.806 4.102 5.657 10.25 9.187 16.777 11.335z"/>
    <path d="m984.56 189.2c0.317 1.514 0.655 3.038 1.013 4.552 1.023 0.501 2.056 1.023 3.11 1.524 2.956-4.174 5.995-8.348 7.887-13.135-1.698 0.327-3.386 0.675-5.064 1.033 0.675-1.279 1.34-2.558 2.005-3.836-2.107 0.829-4.164 1.749-6.21 2.691-0.737-2.22-1.882-4.256-2.875-6.363-5.862 11.165-7.992 9.87-7.243 15.417 2.61 0.224 5.014-0.901 7.377-1.883z"/>
    <path d="m60.054 190.15c1.565-1.043-0.327-3.489-1.77-2.353-1.575 1.044 0.327 3.499 1.77 2.353z"/>
    <path d="m237.71 209.53c-2.578 0.685-5.258 1.136-7.673 2.322-3.1 5.064-3.335 11.161-4.951 16.757 2.005-0.777 3.99-1.596 5.964-2.445-0.563-1.381-1.136-2.742-1.719-4.113 6.878-5.269 6.214-4.754 8.379-12.521z"/>
    <path d="m222.35 229.65c1.893-4.839 2.261-10.138 3.233-15.222-1.974 0.45-3.939 0.931-5.893 1.442-0.235 3.417-0.665 6.803-1.187 10.189-1.637 0.389-3.315 0.655-4.869 1.309-1.432 1.852-2.087 4.164-2.936 6.332 4.02-0.786 8.266-1.604 11.652-4.05z"/>
    <path d="m219.44 215.74c-1.78 0.532-3.55 1.105-5.309 1.668-0.317 2.22-0.644 4.43-0.951 6.65 1.105 0.153 3.325 0.46 4.43 0.614 0.766-2.948 1.329-5.935 1.83-8.932z"/>
    <path d="m212.74 223.23c-0.573-1.381-1.156-2.742-1.749-4.102-0.665 1.545-1.156 3.151-1.279 4.829 0.756-0.185 2.271-0.543 3.028-0.727z"/>
    <path d="m952 262.68c-1.422-6.977-1.187-14.312-4-20.951-2.24-6.527-1.606-13.708-4.399-20.082-1.465 20.623 3.777 34.851 8.399 41.033z"/>
    <path d="m199.5 239.23c0.102-3.028 0.123-6.046 0.092-9.074-3.222 1.258-6.373 2.711-9.565 4.041 3.059 1.851 6.117 3.744 9.473 5.033z"/>
    <path d="m215 241.57c0.133 3.458 3.018-1.595 0 0z"/>
    <path d="m76.125 245.19c-1.995-0.092-3.99-0.153-5.974-0.184 1.668 1.289 3.304 2.619 5.074 3.795 0.399-1.187 0.409-2.455 0.9-3.611z"/>
    <path d="m1084.8 1216.8c-3.243-7.928-11.171-12.348-18.946-14.823-6.425-2.803-13.596-1.238-20.051 0.583-3.632 1.821-6.639 4.716-10.465 6.199 0.573-3.12 1.504-6.302 0.45-9.432-9.821 2.414-17.401 9.473-25.514 15.079-0.604-1.872-1.166-3.734-1.688-5.586-1.964 0.43-4.338 0.246-5.739 1.934-9.703 9.797-8.723 6.305-20.184 26.833-5.771 12.088-37.943 58.935-37.943 58.935 3.775-0.552 7.089-2.537 9.688-5.268 4.492-1.327 16.069-8.165 27.734-21.381 5.729-8.184 11.028-16.665 16.01-25.319h2.271c-0.9 0.982-1.8 1.964-2.701 2.957-0.865 5.037-11.78 23.513-12.45 24.521-4.622 5.884-15.853 10.575-23.417 18.66 13.511-3.748 16.084-9.606 22.475-8.593-2.95 2.328-47.438 25.053-63.375 50.414-28.204 32.364-31.718 23.45-60.173 76.92-2.506 4.256-5.964 8.133-6.813 13.156-6.077 3.887-10.312 10.015-16.603 13.647 32.086-39.862 12.254-25.817 53.094-77.002 3.99-3.54 6.619-8.368 10.926-11.57 5.248-4.245 11.059-8.184 14.598-14.087 21.828-29.147 14.501-16.606 29.514-29.708 1.35-1.258 1.698-3.161 2.435-4.757-11.621 4.358-23.519 11.335-28.828 23.099-0.706 5.279-5.545 8.01-8.593 11.877 0.051-1.657 0.102-3.294 0.154-4.921-2.936 2.803-5.811 6.005-6.496 10.158-7.447 3.601-10.936 11.427-16.869 16.747-13.281 12.393-21.935 32.737-27.376 37.902 0.563-5.269 4.962-8.89 6.24-13.913-9.585 6.449-10.72 17.265-23.12 30.7-0.675-1.739-1.463-3.396-1.913-5.166 0.468-0.921 15.287-19.715 15.928-20.399 22.763-24.594 60.351-97.78 61.544-113.05 1.371-2.312 2.68-4.665 4.061-6.967-1.193 14.315-20.137 58.86-27.478 69.063-4.205 8.286-11.335 14.967-14.21 23.928 0.772-0.655 36.249-40.548 37.585-42.455 2.936-4.256 7.939-6.302 11.366-10.077 14.479-15.922 10.957-3.636 25.125-35.488-3.407 2.823-6.476 6.056-8.992 9.698-6.026 8.511-14.189 15.11-21.872 22.036-10.622 10.708-7.25 7.91-12.164 8.082 3.986-10.968 17.658-26.412 17.033-36.184-0.17-5.845 1.604-38.136-0.102-43.856-7.407 9.043-3.939 21.759-9.268 31.682-37.668 113.66-148.67 213.95-167.65 219.11 2.312-7.58 5.074-15.028 6.517-22.854-8.949 1.814-14.077 19.815-35.222 29.964-9.545 4.91-17.565 12.481-27.703 16.256-10.302 4.174-19.56 10.701-30.291 13.811-8.091 2.463-47.515 17.941-53.841 19.652-35.279 9.566-38.092 15.808-45.626 13.002-13.084-4.992-27.427-3.621-40.92-6.793-8.992-1.596-17.821-4.174-26.987-4.655-11.938-0.47-49.789-9.709-59.498-18.568-2.537-2.281-5.156-4.44-7.826-6.537-2.68-2.128-3.918-5.565-6.66-7.601-2.056-0.777-4.307-0.675-6.455-0.839 3.471 14.025 6.661 12.065 20.522 25.841-62.766-2.937-85.761-31.103-92.255-35.386 0.569-7.618 6.974-12.344 3.519-28.327-1.678-0.767-3.366-1.514-5.054-2.251-0.634-5.933-1.821-11.857-4.174-17.35-0.675 3.857-0.962 7.785-1.739 11.642-5.736-9.949-5.398-15.49-12.91-19.601-3.601-1.821-5.985-5.238-9.197-7.58 1.023 3.376 2.302 6.69 3.069 10.158-5.033-3.396-8.931-8.563-15.038-10.158-0.061 7.192 4.655 12.951 7.202 19.355-1.903-0.45-3.785-0.921-5.657-1.391 4.497 20.108 11.295 17.525 15.396 23.959-0.235 1.575-0.767 3.11-0.9 4.726 2.762 4.829 7.049 8.563 11.018 12.389 2.537 2.588 6.158 3.355 9.586 3.979 5.829 14.211 6.482 11.475 33.023 27.059 4.552 2.823 9.8 4.174 14.496 6.711-5.725 7e-3 -67.454-9.438-107.92-47.212-12.849-8.655-20.225-22.813-27.509-36.01-16.655-25.749 10.276-21.383 5.872-60.746-0.992-6.077-0.716-12.44-3.274-18.169-1.78 1.248-3.652 2.384-5.248 3.887-0.725-26.325-5.868-29.447-11.192-33.237-0.645 2.261-1.258 4.552-1.934 6.844-0.655-1.923-1.197-3.877-1.821-5.79-2.159-8.532-10.701-13.013-14.66-20.562-0.379-0.133-1.125-0.399-1.504-0.532-1.714 10.436-4.03 7.761-6.24 30.813-1.913-2.24-3.366-5.248-6.291-6.302-1.248 1.391-2.036 3.141-1.852 5.064 0.652 30.318-0.451 14.835 5.862 33.248-2.066-1.166-4.317-1.944-6.384-3.089 4.662 27.447 12.354 31.071 19.345 41.708 2.885 4.286 9.289 5.862 9.821 11.683 1.289 0.286 2.578 0.593 3.867 0.921 6.066 20.624 35.974 54.832 38.946 58.925-10.762-1.565-20.255-8.02-28.03-15.335-27.672-18.918-13.247-13.233-35.12-35.468-13.225-11.572-37.885-47.978-43.877-77.81-5.647-28.41-1.88-31.282-1.453-44.429 0.307-4.112-0.113-8.46 1.79-12.255 1.974-4.256 2.967-8.951 5.545-12.91 1.729-2.885 4.286-5.238 5.586-8.368-1.852-1.892-4.123-3.304-6.343-4.696-25.385 32.168-21.784 59.167-20.419 86.618-15.543-22.137-25.396-62.537-23.979-80.03-2.742-12.184-2.271-24.931 0.808-36.992 2.701-2.138 6.373-2.844 8.675-5.504 3.98-4.286 5.616-10.046 8.563-14.997 3.488-7.1 4.624-15.028 5.985-22.731 0.512-2.496-0.685-4.849-1.381-7.161-1.903 1.719-3.775 3.468-5.77 5.115-0.118-5.283 5.418-25.182 4.88-33.902-0.839-1.443-2.015-2.629-3.028-3.908 1.125-1.667 2.404-3.243 3.304-5.023 0.123-1.76-0.307-3.489-0.552-5.187-1.893 3.478-3.366 7.212-5.821 10.373-3.346-7.373 0.664-11.439-2.199-26.711-1.238 0.338-2.506 0.645-3.693 1.156-2.056 3.141-3.182 6.772-4.532 10.261 1.719 0.194 3.437 0.409 5.166 0.624-0.082 4.9-2.864 9.637-1.289 14.547 1.391 5.279 2.66 10.629 2.783 16.133-1.084-2.292-1.974-4.665-2.926-6.997-0.205 2.322-0.358 4.655-0.552 7.008-1.422-3.601-2.762-7.233-4.01-10.885-0.399 1.207-0.777 2.425-1.166 3.673-1.483 0.307-2.956 0.624-4.44 0.972 2.056 7.734 3.069 15.734 5.688 23.324 1.043 2.957 1.105 6.118 1.125 9.238-5.095-7.049-3.11-16.665-8.481-23.56-1.84 12.878 3.999 15.103 4.358 29.514-1.463-3.611-1.841-7.795-4.614-10.731 0.829 7.355 2.005 14.721 3.806 21.923-1.309-2.926-2.343-6.005-4.225-8.614-1.698 5.77 1.187 11.642 1.064 17.524-1.33-0.113-2.66-0.194-3.99-0.286-2.281-8.338-4.849-16.593-7.314-24.869 2.271 0.348 4.522 0.788 6.783 1.248-1.269-8.563-1.381-17.268-1.309-25.892 0.02-5.708 1.944-11.099 4.87-15.928 1.422 1.811 2.742 3.703 4.276 5.443 1.228-6.691 4.051-13.115 4.297-19.949-4 2.097-3.98 6.803-5.125 10.598-2.404-0.818-4.655-2.015-7.008-2.926-2.128 7.816-5.698 15.458-5.442 23.744-0.174 5.719 1.381 11.294 1.647 16.992-5.166-0.573-6.148-6.015-7.846-9.974-0.491-0.143-1.473-0.43-1.964-0.583 8.546 68.558 18.409 31.396 11.683 78.823-1.028 15.15 6.423 36.734 5.197 44.818-2.629-3.315-4.9-6.905-6.394-10.864-1.678-4.215-5.33-7.376-6.424-11.836-1.095-4.123-2.916-7.969-4.399-11.938-0.783-2.536-8.483-34.267-8.511-34.445-16.819-105.65-7.484-111.14-3.038-156.1 0.463-8.077 12.85-47.089 20.296-53.882 2.803-2.179 0.031-5.637-1.453-7.734-2.916 1.575-4.297 4.747-6.056 7.386-2.731 4.665-6.547 8.542-9.401 13.125-10.492 15.071-11.708 31.756-17.678 35.662-0.297-5.002 0.43-9.995 0.051-14.987-0.655-9.453-1.974-19.008-0.297-28.429 3.377-19.166-1.58-17.936 9.401-54.976 1.33-2.363 3.99-3.57 5.892-5.432 6.609-6.159 9.115-15.069 13.749-22.557-1.811 0.614-3.611 1.279-5.422 1.923 2.177-6.407 11.798-24.638 7.335-34.537-1.79 1.923-3.519 3.908-5.34 5.811-0.092-3.141 0.215-6.271 0.43-9.381-2.005 1.299-3.857 2.854-5.974 3.969-2.66 0-4.696-1.933-6.823-3.233-8.187 18.741-5.241 22.559-6.864 32.542-1.442-1.289-2.875-2.568-4.338-3.806-2.198 26.066 1.248 26.384 1.402 30.895-3.263 15.335-6.425 30.782-7.284 46.485-4.158-17.719-5.122-38.575-4.818-42.178 2.98-27.683-4.66-57.46 3.417-100.32 0.943-20.698 16.708-41.746 18.721-55.191-6.15 1.516-12.037 20.999-20.593 29.36-1.033-4.781 1.673-44.989 5.575-63.426 4.409-19.946 6.444-15.017 12.429-22.22 2.661-3.177 11.595-9.674 15.816-21.35-6.794 3.546-26.492 22.696-27.949 27.58-3.049 9.156-3.54 18.977-6.936 28.041-2.087-2.557-4.01-5.442-4.031-8.869-5.225-64.25-14.734-73.258-17.002-82.086 6.302 5.166 7.243 13.78 10.721 20.695 4.064 7.452 5.937 27.635 7.816 36.521 1.371-5.852 1.494-11.918 1.361-17.903-0.361-56.068 8.391-81.901 15.13-118.81 6.45-16.789 9.63-17.17 20.286-23.672 3.581-2.138 4.082-6.701 6.558-9.759 4.634-5.187 9.575-10.455 11.928-17.135-1.995 0.072-4.01 0.082-5.985 0.409-7.41 3.56 1.32 10.842-20.44 15.642 12.452-8.492 14.281-9.73 15.243-13.115-5.524 2.148-10.353 5.698-15.846 7.918 0.072-0.972 0.143-1.934 0.215-2.895 3.511-0.988 18.574-10.057 21.391-12.082-1.176-0.368-2.332-0.788-3.55-0.992-3.714 2.762-7.325 5.923-12.041 6.803 6.128-7.642 19.018-8.419 21.759-18.885-4.44 1.616-7.243 6.363-12.256 6.506 1.647-2.629 3.795-4.87 6.23-6.762-0.726-0.46-1.453-0.921-2.169-1.371 1.872-1.964 3.775-3.898 5.688-5.821-1.678 0.123-3.345 0.266-5.023 0.409 3.11-5.862 7.785-10.649 12.327-15.376 0.737 3.949-1.923 7.243-2.67 10.967 4.321-4.077 9.864-17.122 9.893-24.879-4.184 4.215-6.762 9.749-11.263 13.678-1.606-0.604-3.13-2.199-4.88-1.995-12.74 16.703-10.104 10.148-19.048 34.844-1.749-1.709-2.343-4.205-4.041-5.944-1.78 6.302-3.857 12.491-6.087 18.649-3.667 12.065-3.133 35.172-13.473 53.493-0.624-2.619-1.125-5.268-1.76-7.877-0.436 2.034-7.82 85.661-11.417 98.178-0.481-0.696-1.432-2.077-1.903-2.762-0.153-4.409 0.992-8.726 1.238-13.094 0.184-1.841-1.903-2.66-2.916-3.836-0.675 3.325-0.992 6.711-1.616 10.056-3.877-5.033-3.529-12.031-7.867-16.777-11.476-12.279-12.779-19.457-26.394-21.197 0.88 2.772 2.588 5.115 4.542 7.233 18.28 23.738 16.646 23.242 22.506 41.023 10.689 39.071 8.402 117.85 8.471 119.49-0.225 4.859 1.084 10.823-3.55 14.087 0.501 0.338 1.003 0.675 1.514 1.033-0.829 0.859-1.657 1.739-2.455 2.65-4.68-7.794-7.94-29.13-7.846-33.023 1.613-14.861 5.823-21.856 4.788-43.641-0.542-0.01-1.637-0.031-2.179-0.041-0.931 1.852-2.005 3.652-3.407 5.207-2.731-8.389-2.639-17.381-4.716-25.913-0.327-2.087-2.752-2.322-4.266-3.202-1.228-3.345-2.639-6.629-4.481-9.678 0.072 3.785 0.113 7.591-0.655 11.335-6.363-6.557-10.568-15.652-19.365-19.458 4.752 33.514 3.062 14.914 8.726 33.473-1.923 0.082-3.836 0.143-5.76 0.205-0.746 16.853 5.462 15.707 9.831 27.253-2.394 0.931-4.767 1.954-7.059 3.141 7.344 9.588 10.175 18.914 23.171 23.314 6.016 20.738 17.648 85.628 16.242 111.87-5.494-9.616-10.097-20.133-18.465-27.693-1.708-1.575-4.205-1.064-6.302-1.217 1.248 5.084 6.199 7.806 8.286 12.409 15.109 39.239 9.924 32.283 10.026 45.043 1.749 13.77 8.491 26.516 9.074 40.491 0.982 8.91 3.386 17.657 3.55 26.66 1.766 37.98 10.768 68.487 6.22 79.569-4.389-4.992-3.857-12.01-6.087-17.923-9.688-26.838-6.889-15.575-17.882-44.194 1.868-7.263 3.213-0.391 3.12-20.44-0.235-5.749-0.542-11.754-3.448-16.859-5.295 10.443-1.747 6.995-2.864 16.235-2.189-3.601-2.455-7.877-3.969-11.734 6.61-7.518-4.503-25.129-5.77-29.319-0.89-3.018-1.719-6.077-3.049-8.931-1.708 5.268-0.655 10.987-2.619 16.225-11.187-13.894-5.81-15.075-16.409-20.317-0.485 6.985 1.345 12.956 8.389 30.148-2.251 0.757-4.604 1.146-6.916 1.647 1.444 17.372 7.062 19.294 10.046 27.007-1.668 0.46-3.345 0.941-5.003 1.453 3.703 8.307 10.005 15.611 18.465 19.284 2.056 1.309 5.391 1.34 6.23 3.99 5.761 13.582 27.33 58.638 26.22 85.902-5.003-6.321-14.684-26.119-24.399-24.317-2.097 3.734 0.256 7.836 2.772 10.67 14.101 15.794 21.885 59.354 23.437 64.613 2.353 8.378 6.496 16.286 7.488 25.023 1.146 9.923 6.609 18.915 6.619 29.013-5.299-5.463-9.238-12.072-12.593-18.854-11.98-19.313-3.388-13.778-19.468-45.074-0.491-0.051-1.453-0.164-1.933-0.215-0.194 2.199-0.389 4.409-0.655 6.629-8.526-9.744-13.9-23.457-21.851-25.258-0.031 3.315 0.246 6.639 0.092 9.974-5.33-3.724-8.655-9.289-12.153-14.588-0.624 1.535-1.463 3.049-1.678 4.737 0.102 6.731 2.159 13.411 6.762 18.455-1.347 4.525-7.989 10.489 15.11 24.736 0.225 1.8 0.45 3.621 0.706 5.442 33.887 20.491 10.877-16.821 70.045 90.7 3.221 6.113 22.773 38.798 26.977 46.844 2.476 4.996 30.449 40.137 32.388 44.859-12.059-5.504-10.571-9.252-40.869-29.514-0.665 1.974-1.432 3.959-1.831 6.046 1 0.795 45.329 32.612 49.616 40.849-19.663-2.233-8.643-4.633-50.403 0.921 0.031 0.777 0.051 1.575 0.082 2.394 5.371 0.859 10.486 3.038 15.99 3.049 16.434 0.034 43.779 14.724 57.708 25.084 4.073 3.103 23.075 13.43 25.565 15.396 3.11 2.404 6.159 5.013 9.882 6.445 6.148 2.425 11.478 6.424 17.483 9.146 18.042 9.89 27.254 9.82 33.442 18.087-110.6-13.603-112.62-9.89-134.81-25.187-7.396-5.657-16.112-10.649-19.836-19.672-6.987-1.688-13.534-4.665-20.235-7.171 1.187 3.089 2.864 5.964 4.757 8.685-3.284-1.667-6.752-3.089-9.586-5.473-2.65-2.128-4.992-4.839-8.358-5.852-5.879-1.894-10.637-8.237-14.066-6.404-1.933 2.24-3.263 4.931-4.972 7.355 1.381 2.005 2.783 4.02 4.276 5.974-22.593-4.663-22.127-6.339-26.322-5.309-1.32 2.414-1.79 5.166-2.547 7.795 3.601 1.361 7.437 1.453 11.233 1.003 0.164 0.716 0.501 2.148 0.675 2.864-1.361 1.76-2.711 3.519-4.031 5.33 2.046 1.678 4.194 3.775 7.089 3.458 1.207-1.084 2.24-2.332 3.315-3.519 0.184 2.046 0.246 4.102 0.593 6.148 2.107 1.156 4.409 1.882 6.609 2.864-2.997 1.893-6.292 3.243-9.524 4.696 1.616 4.072 5.872 5.033 9.8 5.361 0.297 1.228 0.593 2.476 0.91 3.734 8.89 2.22 18.169 2.097 26.987 4.634-0.215 1.831-0.45 3.662-0.675 5.514 5.136 1.003 10.066-1.688 15.181-0.726 9.749 1.504 19.877 1.105 29.319 4.307-3.563 0.816-28.179 1.931-48.48 12.409-3.785 1.043-7.816 0.471-11.652 1.381-1.442-1.719-2.701-3.673-4.573-4.931-4.951-1.35-10.036 0.286-14.936 1.135-4.665 0.798-9.831 0.358-13.872 3.253-3.447 9.643 26.054-8.075 32.102 4.02-2.558 7.683-11.693 11.253-19.212 9.524-0.665 0.972-1.33 1.944-1.985 2.946-0.737-1.135-1.463-2.261-2.199-3.355-1.34 1.115-2.67 2.261-3.979 3.458 3.887 2.158 8.235 2.977 12.593 3.478-4.593 3.09-8.696 7.059-13.913 9.135-5.913 1.637-11.938-1.268-17.903-0.501-3.13 0.747-6.046 2.261-9.258 2.752-0.153-5.453 4.338-8.88 8.338-11.693 3.202-1.872 7.243-1.084 10.445-2.977 3.028-1.678 6.159-3.212 9.534-4.041-0.113-3.13-0.031-6.271-0.276-9.381-3.079 0.419-6.128 1.003-9.166 1.667 0.859 1.207 1.739 2.435 2.619 3.673-1.34-0.092-2.68-0.153-4.02-0.194-0.256 1.882-0.471 3.775-0.685 5.698-23.047 6.526-13.06 3.98-25.821 17.575 1.32 1.197 2.639 2.425 3.939 3.683 15.158-5.516 1.469-2.972 26.997 0.174-2.032 4.541-12.849 15.817-17.995 23.325-0.696-0.245-2.077-0.726-2.772-0.972 0.389-3.601 1.309-7.386-0.747-10.65 0.747-2.015 2.118-4.327 0.624-6.332-2.302-2.762-5.872-0.634-8.675-0.123-0.35 10.38 1.698 7.122-3.601 13.453-12.209 12.095-13.155 21.435-14.803 27.652-0.634 3.335 3.499 5.176 6.087 3.642 3.396-3.151 5.258-7.816 9.442-10.107 2.271-1.289 4.317-3.335 7.038-3.529 0.225 1.719 0.532 3.519 0.082 5.268-3.488 3.09-7.468 5.565-11.202 8.358 13.92 3.59 22.9-7.645 29.411-11.652 2.097 2.179 4.532 6.015 8.102 4.276 6.159-2.956 12.071-7.018 15.816-12.859 4.62-5.95 6.206-15.637 10.005-16.082 1.442 1.841 2.435 3.99 3.887 5.841 4.524 0 14.688-20.846 16.491-26.69-0.153-7.038 2.159-14.179-0.501-21.002 9.586-3.57 17.821-10.394 28.102-12.092 6.895-1.596 14.148-0.358 20.931-2.537 8.655-2.466 17.739-1.166 26.598-1.606 5.811 0.072 12.02-0.737 17.371 2.066-2.305 5.64-40.46 14.451-35.12 29.739 1.586 0.256 3.263 0.511 4.839 0.031 2.465-2.026 3.98-4.992 6.537-6.905 67.241-33.844 104.05-16.376 144.55-16.255 1.567-0.012 31.969 6.859 32.818 7.079 2.721 0.737 4.665 2.936 6.793 4.665-5.043 0.44-10.118 0.43-15.14-0.235-8.419-1.258-16.88 0.307-25.319 0.389-25.752 4.156-29.7 11.77-37.636 8.43-9.125-4.113-19.417-3.366-29.176-3.407-3.263-0.338-5.882 1.678-8.123 3.765-11.269-0.332-25.744 10.589-30.015 14.373 2.138 1.218 5.279 1.31 6.547 3.642-2.63 1.572-16.13 11.52-24.92 21.176 2.598 0.563 5.258 0.951 7.795 1.79-3.423 9.225-5.829 4.187-11.243 22.915 2.199 0.583 4.399 2.005 6.742 1.678 4.102-1.565 7.335-4.736 11.355-6.486 2.21 1.146 3.928 4.061 6.772 3.038 8.327-0.706 13.013-8.245 18.302-13.678 2.302 0.399 3.54 2.926 5.524 4.072 13.199-4.448 10.587-6.171 17.053-19.253 2.813-0.767 4.174 3.417 6.251 4.839 1.862-1.76 3.632-3.611 5.217-5.616 32.204-38.135-9.509-15.962 50.25-37.043 2.363 0.481 4.675 1.443 7.141 1.074 29.369-2.678 20.724 1.117 38.731-0.051 22.891-4.806 13.426-5.499 49.36-8.112 11.386 0.563 23.232-1.749 34.189 2.312-11.376 2.077-23.007-0.624-34.465 0.604-39.057 2.69-57.474 13.252-65.022 15.713 3.263-2.936 7.222-4.951 10.465-7.908-7.478 2.067-15.079 4.685-20.808 10.148-4.082 4.082-9.176 7.243-12.061 12.389 9.268 1.033 15.877-6.844 24.153-9.483 11.51-3.311 3.697-4.607 44.276-11.018 10.005-2.865 20.562-0.921 30.711-2.987 19.49-4.597 78.202 0.937 103.38 7.969 0.102 0.245 0.317 0.737 0.419 0.982-15.953 6.232-132.06 21.344-157.45 31.509-9.759 3.673-20.204 4.767-30.168 7.714-8.317 2.107-16.153 5.606-24.163 8.593-3.284 0.921-4.788 5.657-1.852 7.754 2.373 2.322 5.453 0.194 8.01-0.624 26.471-10.734 39.868 2.815 47.13 2.107 11.417-0.604 22.977-1.381 34.005-4.614 1-0.362 151.28-47.774 160.43-45.166 23.73 4.454 130.82 44.792 138.25 48.163 18.711 7.577 21.752-7.654 52.644-4.645 4.409 0.992 8.931 1.371 13.453 1.166 0.818-1.473 1.657-2.936 2.527-4.348-1.033-0.663-35.472-15.125-40.542-16.143-34.93-7.016-64.028-18.471-76.06-18.619-1.268 1.637-2.107 3.54-3.028 5.401-1.913-0.379-3.816-0.767-5.719-1.115 0.941-1.944 2.302-4.072 1.115-6.21-5.728-1.792-31.685-3.027-47.928-11.857 21.31-13.028 100.94-17.272 101.94-17.443 14.531-1.856 17.539 1.282 45.534 11.499-0.972-3.212-2.169-6.332-3.182-9.504 9.944 3.662 17.34 11.642 25.544 18.005 0.552-4.644-1.678-8.726-3.171-12.921 11.65 3.456 15.89 14.558 26.414 21.637 1.34-5.135-1.565-9.719-2.68-14.547 8.082 4.307 12.153 13.821 20.716 17.32 0.767-1.841 1.217-3.775 1.811-5.637 4.01 3.632 6.875 8.491 11.396 11.529 1.32-0.43 3.253-0.736 2.609-2.578-0.602-8.909-16.149-31.392-37.555-39.764-5.492-0.967-16.368-8.568-31.498-8.02-4.481 0.143-9.013-0.245-13.309-1.565 0.021-5.276 36.255-5.767 41.626-5.422 5.852 1.698 11.969 2.967 17.238 6.179 4.921 3.315 8.491 8.471 14.087 10.823-0.757-3.212-1.534-6.424-2.159-9.657 14.001 6.685 8.581 16.043 24.552 21.043-4.317-5.166-8.665-10.476-10.588-17.064 8.931 4.849 15.212 13.146 23.079 19.406-0.612-4.897 1.865-3.539-3.683-8.072-0.227-17.018-50.914-32.34-93.042-25.555-7.55 0.788-14.343 5.248-22.005 5.115 13.708-7.645 56.425-17.198 52.419-16.348 16.441-3.49 57.191-1.804 72.715 6.783 4.138 2.235 35.061 9.68 47.519 26.097 5.095 6.834 10.895 13.933 11.938 22.711 0.128 1.001 4.848 20.527 2.128 27.478-1.125 3.11-1.79 6.353-1.841 9.678 5.414-0.06 5.209 3.338 10.915-13.023 3.652-8.358 3.304-17.759 2.875-26.67-0.235-3.621 1.054-7.151 0.777-10.752-0.111-0.814-8.094-20.354-9.371-22.69-7.378-12.98-28.864-26.348-36.767-26.117 2.783 2.916 6.343 4.941 9.432 7.529-4.354-0.972-57.774-32.867-128.33-17.166-4.532 0.921-8.869 2.834-13.555 2.977 45.288-16.373 91.242-12.725 129.94 6.312-0.573-1.893-1.146-3.785-1.647-5.647 26.199-1.317 59.601 8.385 77.012 31.959 1.125-2.997 2.476-5.923 3.233-9.033-0.102-1.882-0.747-3.673-1.146-5.473 16.856 9.77 21.493 30.028 22.404 32.521 2.087-1.054 4.123-2.189 6.148-3.355 12.419 17.486 8.155 34.297 9.524 44.368 1.309-0.092 2.639-0.174 3.979-0.225 0.45-3.877 1.064-7.734 2.363-11.417 1.483-3.877 0.685-8.092 1.361-12.092 2.844-14.254-3.136-28.589-11.294-39.202-3.151-3.877-3.887-9.36-7.928-12.542-2.097-1.606-3.939-3.509-5.289-5.77 29.212 4.042 48.559 39.46 49.36 40.46 1.442 0.46 2.946 0.726 4.46 1.084-0.42-5.033-3.325-9.432-3.642-14.435 0.88 0.102 2.639 0.297 3.519 0.389 3.11 6.169 5.933 12.522 9.616 18.394 2.987 4.9 3.683 11.141 8 15.222 2.926-1.565 2.752-5.463 4.041-8.184 12.367 26.14 13.786 30.789 12.624 53.268 1.698 0.256 3.499 1.269 5.238 0.726 2.251-6.813 1.033-13.984 1.391-20.992 0.491-15.894-10.384-29.872-11.366-33.657 0.491-3.161 4.153-6.404 1.586-9.412-4.358-7.069-10.332-12.921-15.529-19.335-2.66-3.406-6.956-4.941-9.586-8.317-0.634-2.517 1.79-4.266 2.885-6.23-7.458-8.463-3.904-10.314-24.992-21.739-1.228 0.88-2.445 1.77-3.652 2.68 1.412 1.228 2.844 2.465 4.205 3.795-2.534-0.87-36.276-15.892-39.478-18.772 12.735 2.55 30.458 12.937 33.688 13.729 1.514-0.43 2.864-1.268 4.286-1.913-7.219-5.166-44.187-21.024-52.511-21.146-5.903-1.033-11.826-2.148-17.586-3.826-4.552-1.176-9.381-0.194-13.872-1.657-8.266-2.384-16.91-2.21-25.35-3.448-4.931-0.726-9.678 1.166-14.506 1.473-22.041-3.954-83.878 9.922-84.879 10.066 12.446-12.315 43.07-19.129 51.826-26.844-6.578-0.634-11.775 4.194-17.944 5.545-5.719 1.279-10.803 4.174-16.031 6.66 3.642-3.57 8.829-4.563 13.023-7.274 14.23-8.225 30.312-11.898 45.8-16.869 5.176-1.77 10.987-1.913 16.112 0.082-11.458 2.875-25.677 0.532-34.363 10.21 20.789-5.986 23.021-3.903 44.726-4.665 4.338 0.215 5.565-4.716 7.529-7.601-16.509-6.948-20.426-3.522-28.675-4.563 5.252-8.143 27.657-10.078 31.621-10.803 4.706-0.859 9.463 0.092 14.179 0.45 6.987 0.46 12.931 5.555 20.071 5.166 11.209-4.262 3.753-10.568-0.839-11.826-6.036-1.627-11.836-4.327-18.148-4.706 0.031-0.174 0.082-0.532 0.113-0.706 6.394-0.941 12.695-3.008 19.243-2.476 25.294-0.923 27.697 17.313 41.902 20.91 2.67-1.35 7.274-3.345 5.422-7.089-1.657-7.683-8.491-12.747-15.56-15.161-2.864-0.706-4.317-3.345-5.811-5.606 12.847-0.745 31.989 4.689 44.419 16.102 2.905 2.691 2.609 7.182 5.095 10.179 6.072 7.399 9.419 12.96 18.68 15.284 0.573-2.445 2.578-5.412 0.542-7.642-3.396-4.788-8.031-8.522-11.437-13.299-2.875-3.949-6.844-6.895-10.742-9.739-17.369-12.203-15.462-6.521-33.677-14.834-5.084-0.368-10.199 0.133-15.232 0.757-0.225 2.292-2.302 5.033-0.481 7.059 3.918 2.977 8.593 4.89 12.266 8.225 1.586 1.197 1.269 3.396 1.739 5.156-7.284-4.184-13.719-10.281-22.158-12.143-7.693-2.169-15.744 0.43-23.447-1.575 13.938-4.282 18.995 0.553 28.296-1.504-0.061-1.616-0.113-3.212-0.154-4.788-42.115-0.793-77.881 25.346-96.572 34.23-1.811 1.698-3.99 2.905-6.394 3.56 7.142-11.383 37.49-35.928 70.669-39.887 7.079-4.685 13.616-10.271 20.286-15.56 4.45-3.448 9.77-5.729 13.657-9.882 3.611-3.959 8.931-5.412 13.401-8.112 5.627-3.601 12.47-3.898 18.864-5.033 6.916-1.698 13.78 1.78 20.757 0.368-1.841-4.9-6.67-7.55-11.1-9.719-5.217-0.604-10.486-0.542-15.713-0.338-5.678-0.747-10.148 4.276-15.887 3.284 4.02-3.744 8.706-6.721 12.399-10.813-5.657 0.215-10.823 2.977-16.337 4.082-6.568 2.056-13.626 1.893-20.051 4.43-59.692 21.864-57.8 31.035-77.554 41.626 6.025-13.482 47.906-52.327 57.472-62.762 4.041-3.488 8.696-6.22 12.46-10.036 2.476-2.629 5.872-3.928 9.125-5.309 4.031-1.616 7.222-4.972 11.611-5.739 14.539-2.871 28.183-19.562 32.593-33.544 1.719-6.148 6.517-10.629 10.598-15.263 2.128-2.322 3.55-5.228 5.913-7.345 10.301-7.366 19.086-16.96 30.659-13.841-0.117 1.017 5.099 31.267-0.941 53.8-0.706 2.23-0.921 4.593-0.593 6.936 1.177 10.649-0.931 21.984 3.744 32.03 2.782 6.701 7.949 11.847 12.235 17.565 1.35 0.061 2.721 0.133 4.102 0.215-0.563-4.614-2.629-8.818-3.795-13.238 0.778-8.715-3.039-10.564 3.816-32.051 1.412-5.197 4.072-9.974 5.309-15.212 3.013-16.836 7.834-17.645 5.657-45.912-0.199-5.615-2.9-10.648-4.68-15.855zm-746.65 271.68c-1.205-6.249-0.572-12.2-11.253-19.887 0.297-3.591-0.818-7.028-1.882-10.384 1.412 0.051 2.834 0.133 4.266 0.215 0.992 4.471 2.67 8.757 5.043 12.695 3.069 4.951 4.245 10.782 7.427 15.672-1.197 0.543-2.404 1.106-3.601 1.689zm-127.77-126.48c5.596 4.829 10.66 10.731 12.235 18.158-1.78-0.808-3.55-1.657-5.32-2.435 0.051 5.739 3.928 10.138 6.292 15.059-3.488-1.811-6.578-4.245-9.944-6.261 1.013-1.33 2.036-2.66 3.028-4-5.757-12.32 1.685-6.698-6.291-20.521zm8.296 37.504c0.123-0.839 0.368-2.517 0.491-3.355 1.013 0.859 1.985 1.79 2.895 2.783-0.838 0.142-2.537 0.428-3.386 0.572zm9.289 14.444c-0.88-1.719-1.207-3.621-1.719-5.432-2.946-1.708-3.765-4.829-2.824-7.99 3.407 5.688 8.174 10.435 11.325 16.276-2.301-0.818-4.889-1.217-6.782-2.854zm15.755 6.752c-10.99-8.248 1.126-22.768 2.598-33.473 0.358-3.611-3.601-4.839-6.179-6.077 0.164 7.345-1.964 14.527-5.125 21.105-8.587-15.06 0.402-24.879 1.32-37.288-0.962-0.941-1.985-1.79-3.059-2.568-1.483 5.442-3.601 10.67-5.391 16.01-4.89-8.818-4.818-19.202-3.918-28.961 0.747-5.995-1.023-11.959-0.235-17.954 7.403 1.901 9.554 18.944 10.445 23.662h2.588c1.381-2.803 2.691-5.637 4.072-8.409 2.588 4.829 3.611 10.23 4.91 15.509 1.279 4.501-1.862 8.849-1.146 13.381 0.532 1.432 1.473 2.691 2.261 4.021 2.22-0.696 4.46-1.34 6.721-1.882 3.303 19.307-4.29 27.667-5.483 33.821-0.645 3.375-2.446 6.311-4.379 9.103zm-112.4-241.87c0.951 0.01 2.844 0.041 3.795 0.061 0.338 5.8 2.097 11.519 1.309 17.371-2.383-5.596-3.365-11.632-5.104-17.432zm-36.02-219.83c2.68-5.729 7.253-10.271 12.02-14.291-0.409 6.895-7.478 10.179-12.02 14.291zm7.059-25.125c-1.739 2.087-3.744 3.939-5.8 5.708-0.031-0.818-0.092-2.455-0.133-3.274 1.953-0.879 3.917-1.718 5.933-2.434zm0.9 5.361c1.361-2.21 3.928-2.854 6.312-3.243-2.672 4.28-12.468 14.76-14.956 16.685 1.462-5.289 5.687-9.002 8.644-13.442zm-2.742 29.248c-1.575 3.222-4.123 5.903-7.57 7.12 1.739-3.1 4.02-6.046 7.57-7.12zm12.286-364.43c1.985-0.808 2.199 2.332 0.491 2.752-1.943 0.788-2.158-2.373-0.491-2.752zm-5.125 2.731c0.491 0.573 1.463 1.729 1.954 2.302-0.777 1.35-1.555 2.721-2.312 4.102-3.642-2.199-7.386-0.102-10.885 1.268 3.1-3.406 6.988-5.963 11.243-7.672zm-58.475 223.2c-2.476 3.366-1.923 7.703-2.537 11.611-5.944-5.8-12.747-10.956-16.501-18.568 1.954-0.113 3.918-0.194 5.882-0.286-1.32-4.604-2.159-9.688-5.913-13.054-3.785-3.652-6.015-8.481-6.997-13.596 2.476 0.133 4.941 0.389 7.396 0.726-4.439-18.601-6.941-18.919-7.519-28.01 10.173 8.156 11.149 18.987 15.13 26.455 0.87-4.051 0.941-8.205 1.637-12.276 6.268 12.278-2.895 29.321 7.652 43.519 2.476-4.593 3.632-9.729 5.79-14.445 2.302 6.159-0.654 12.737-4.02 17.924zm-5.483 205.02c-2.864-4.604-4.235-10.015-4.849-15.355 3.151 4.47 4.695 9.912 4.849 15.355zm-7.765-19.663c1.299-1.033 3.038 1.156 1.678 2.169-1.289 0.982-3.069-1.207-1.678-2.169zm-13.186 13.596c2.711 0.276 5.412 0.685 8.092 1.248-0.685 1.831-1.494 3.621-2.22 5.453 1.565-2.005 5.115-3.867 3.396-6.803-2.445-5.688-5.442-11.181-6.905-17.258 8.121 6.947 7.191 5.998 7.048 13.749 1.627 1.125 3.601 2.138 4.205 4.205 1.862 4.798 3.202 9.821 4.072 14.895-3.57-2.496-6.332-6.158-10.598-7.591 1.668 5.586 7.366 8.788 12.828 9.586-0.235 1.166-0.471 2.343-0.706 3.529 1.678 0.634 3.458 1.095 4.982 2.097 0.43 2.803 0.348 5.657 0.522 8.491-6.65-1.729-13.851-3.877-17.78-10.005-3.622-6.64-7.683-13.77-6.936-21.596zm24.235 40.163c-3.742-0.526-7.795 0.275-17.36-12.491 6.179 2.015 11.703 5.647 18.117 7.048-0.205 1.812-0.461 3.622-0.757 5.443zm0.972 165.62c1.279-1.719 2.312-3.58 3.529-5.32-8.646-3.727-7.66-0.977-16.481-11.1 1.616-7.448-6.005-12.348-7.018-19.335 6.786 4.847 32.562 28.657 39.283 42.24-6.659-1.421-13.022-3.907-19.313-6.485zm48.94-170.73c1.115-1.033 2.496-1.698 3.744-2.506 0.368 3.754-0.716 7.294-3.509 9.882-0.481-0.286-1.422-0.88-1.893-1.166 0.502-2.088 0.686-4.297 1.658-6.21zm-29.063-171.52c2.813-10.455 3.376-22.046 10.557-30.741-1.309 7.294-5.135 13.923-5.862 21.36-0.706 7.836-3.488 15.406-3.366 23.345 0.164 3.407 0.573 6.813 0.399 10.24-1.005 20.574 3.082 37.589 1.309 51.805-3.499-8.614-2.292-18.046-2.997-27.079-1.647-11.673-1.78-23.631 0.072-35.294 0.46-4.551-1.033-9.124-0.112-13.636zm-6.865-4.859c-0.307-1.831-0.542-3.662-0.808-5.483 0.839 0.072 2.506 0.215 3.345 0.297-0.89 1.708-1.585 3.508-2.537 5.186zm12.952 153.03c-2.547-19.58-8.614-38.629-9.371-58.444-0.583-8.061-3.448-15.703-4.409-23.703 9.323 12.634 7.154 35.071 10.67 50.588 1.217 9.913 5.77 19.233 5.606 29.35 1.668 14.742 2.148 29.616 4.624 44.276 0.471 4.399 0.276 8.849 0.082 13.279-1.064 0.205-2.128 0.43-3.192 0.665-0.013-3.344-3.885-52.67-4.01-56.011zm19.304 33.012c2.568 8.348-2.118 16.133-3.233 24.245-19.816 132.6 27.675 219.98 28.47 223.24-38.258-47.108-47.781-206.35-25.237-247.48zm26.373 249.32c2.609 5.79 7.57 10.496 8.532 16.992-5.453-4.01-6.629-10.967-8.532-16.992zm23.007 43.396c-2.558-6.414-6.66-11.979-9.882-18.036 5.34 5.084 7.969 12.204 12.562 17.903-0.675 0.03-2.005 0.092-2.68 0.133zm-105.26 235.24c-0.174-1.534-0.348-3.059-0.522-4.552 1.371-0.389 2.742-0.757 4.113-1.084-1.197 1.861-2.404 3.743-3.591 5.636zm6.118-7.642c-1.043 1.524-3.509-0.348-2.373-1.77 1.053-1.585 3.488 0.287 2.373 1.77zm14.956-12.143c-1.555 0.839-3.263 1.35-4.921 1.964 1.207-2.118 2.588-4.123 4-6.087-1.995 0.082-3.99 0.205-5.995 0.266 1.852-2.056 4.256-3.376 7.079-3.284 0.113 2.353 0.318 4.788-0.163 7.141zm6.445 7.161c0.174-3.673 0.051-7.366 0.399-11.008 1.841 3.877 2.752 8.092 4.143 12.143-1.504-0.439-3.018-0.808-4.542-1.135zm4.225-21.504c1.033 1.688 2.015 3.417 2.905 5.228 0.604 0.021 1.811 0.072 2.414 0.092-0.992 3.54-1.586 7.284-3.611 10.445 0.113-3.54 0.338-7.079-0.061-10.609-2.128 1.176-4.266 2.353-6.384 3.581-0.256-2.128-0.665-4.368 0.409-6.322 1.739-3.744 3.683-7.724 7.212-10.087 3.366-2.23 6.036-5.432 9.708-7.182 0.46 0.235 1.371 0.706 1.821 0.941-5.4 3.96-10.608 8.328-14.413 13.913zm21.544 2.834c-0.644 1.821-3.478 2.394-4.501 0.624-2.889-2.609 1.995-15.512 0.89-19.938 2.558-2.987 4.962-6.373 8.921-7.56-5.108 8.704-3.587 2.556-3.673 17.197 1.361-0.153 2.721-0.307 4.092-0.399-2.261 3.15-4.071 6.578-5.729 10.076zm9.75-12.747c-1.064 0.205-2.128 0.44-3.192 0.685 0.041-0.736 0.133-2.199 0.174-2.926 1.136-0.041 2.271-0.061 3.407-0.061-0.093 0.584-0.287 1.73-0.389 2.302zm67.62-50.822c-3.867 0.706-8.788 2.077-11.478-1.801 3.939-0.696 7.918 0.051 11.478 1.801zm-90.75-34.189c5.197-1.248 10.455-0.051 15.672 0.235-2.005-4.675-4.051-9.35-5.432-14.261 3.81 2.814 28.35 19.166 36.286 23.263 0.665-3.304 0.542-6.67 0.43-9.995 6.537 4.092 12.706 9.279 16.44 16.153 3.54 4.552 9.371 6.373 13.688 10.036-13.858 3.166-24.197-12.028-25.647-13.299-4.81 1.4 1.052 8.288 4.286 12.041-22.266-2.997-21.672-10.852-29.227-23.12-0.798-1.79-2.967-1.627-4.542-2.128-0.409 5.115 2.711 9.248 4.972 13.524-1.948-0.468-22.769-8.881-26.926-12.449zm16.388 23.754c1.749-1.974 3.621-3.826 5.463-5.708 1e-3 0 29.094 11.447 29.094 11.448-17.548-1.902-6.22-3.14-24.532-6.865-3.416-0.737-6.588 1.452-10.025 1.125zm58.291 13.821c-15.099-4.57-22.79-2.41-26.169-2.445-6.097-1.616-12.47-2.905-17.718-6.639 6.823 0.767 13.555 2.271 20.061 4.511 0.307-1.217 0.634-2.414 0.962-3.591 4.007 0.076 18.757 2.52 26.281 6.036 8.685 3.417 18.291 3.284 27.079 6.23-7.433 0.94-29.495-3.809-30.496-4.102zm36.695 4.716c-0.982 1.524-4 0.164-2.936-1.545 0.982-1.534 4.021-0.215 2.936 1.545zm51.017 3.529c3.519-2.036 7.478-1.084 11.171-0.153-3.692 0.552-7.457 0.644-11.171 0.153zm17.126 48.02c0.205-3.938 0.777-7.887 0.379-11.826-3.632 4.972-2.875 11.672-6.588 16.624-0.706-6.455 3.13-12.368 2.077-18.772-6.589 8.634-3.74 15.037-8.01 22.639-0.235-6.056 3.325-11.662 1.841-17.749-5.524 4.655-4.542 12.788-7.632 18.854-0.419-3.325-0.358-6.68-0.849-9.984-0.471-0.123-1.422-0.379-1.893-0.501-1.545 4.859-2.24 9.974-4.235 14.701-0.655-3.223-0.992-6.476-1.33-9.719-0.43 0.133-1.289 0.389-1.719 0.522-0.88 4.624-1.749 9.258-2.537 13.923-1.105-0.767-2.189-1.534-3.284-2.281-0.655 2.721-1.381 5.432-2.077 8.164-0.43-1.105-0.849-2.179-1.269-3.243-1.442-0.46-2.854-0.982-4.266-1.504-1.084 2.946-2.159 5.903-3.141 8.9-0.46-5.095 0.082-10.281-1.207-15.263 6.783-4.593 13.299-9.565 19.877-14.445-1.279-1.954-2.772-3.744-3.826-5.821 14.342-9.66 23.35-7.854 29.749-7.949 0.184 1.054 0.552 3.151 0.737 4.204 0.808-1.33 1.616-2.639 2.424-3.928 0.696 0.102 2.087 0.307 2.783 0.409-2.178 4.603-4.368 9.206-6.004 14.045zm6.158-2.609c-0.481 0.082-1.453 0.245-1.934 0.338 1.616-4.573 2.056-9.616 4.737-13.729-0.164 4.594-1.657 8.972-2.803 13.391zm4.829-5.974c0.849-1.739 1.575-3.529 2.517-5.197 0.143 1.657 0.194 3.355 0.317 5.064-0.706 0.031-2.128 0.102-2.834 0.133zm-98.761-118.61c5.238-0.399 9.647 2.731 13.575 5.77-4.624-1.545-11.089-0.706-13.575-5.77zm18.803 9.585c-1.811-0.726-2.731-2.455-3.632-4.051 7.616 1.246 27.59 12.838 29.708 19.304-9.32-3.897-17.054-10.751-26.076-15.253zm66.249 40.276c-1.616-1.616-53.182-36.825-70.669-69.534-20.112-23.698-30.017-77.204-22.424-93.012 1.156 11.714 0.44 23.58 2.568 35.191 2.978 30.016 30.007 69.977 51.345 87.764 4.194 3.325 6.629 8.368 11.079 11.406 1.881 1.326 16.279 13.95 18.343 16.563 26.369 25.509 100.81 48.334 121.89 56.91-27.158-0.867-104-38.024-112.13-45.288zm95.201 111.51c2.936-1.504 6.271-1.524 9.268-0.143-3.078 0.419-6.188 0.48-9.268 0.143zm9.944 1.248c0.01-0.614 0.02-1.841 0.02-2.455 1.453 0 2.916 0.02 4.389 0.061 0.031 0.624 0.092 1.872 0.133 2.506-1.524-0.061-3.028-0.102-4.542-0.112zm17.412 7.427c-0.563-1.555-1.095-3.1-1.637-4.624-1.913-0.338-3.806-0.665-5.708-0.982 0.235-0.828 0.471-1.637 0.706-2.435 3.182 1.258 6.302 2.68 9.483 3.949 0.215 0.542 0.645 1.627 0.859 2.169-1.238 0.624-2.466 1.268-3.703 1.923zm10.629-15.478c3.734-1.084 7.427-2.527 11.355-2.783-3.417 2.742-7.724 3.857-11.857 5.003 0.123-0.553 0.369-1.658 0.502-2.22zm10.71 11.028c-1.79-0.634-0.164-2.803 1.187-2.639 2.936-0.175 0.89 3.733-1.187 2.639zm99.017-30.036c-1.627 1.054-3.795-1.473-1.708-2.425 1.565-1.145 3.764 1.515 1.708 2.425zm224.02 16.645c5.432 0.113 11.376-0.399 16.092 2.854-9.453 1.177-19.253 0.379-28.358 3.703-3.795 1.535-2.711 7.304 0.778 8.542 3.069 1.135 6.384 1.289 9.626 1.688-13.33 1.97-14.031 1.022-17.309-9.054 7.813-8.265 6.863-7.855 19.171-7.733zm-31.345-5.023c-2.424 0.133-4.849-0.113-6.946-1.391 2.373 0.051 4.726 0.511 6.946 1.391zm-7.386-1.78c-5.749-1.443-11.662-2.742-16.808-5.77 5.811 1.187 11.468 3.161 16.808 5.77zm-53.953-12.716c0.061 0.706 0.184 2.138 0.235 2.844-5.534-1.166-12.419-1.534-15.785-6.752 5.238 1.054 10.261 2.977 15.55 3.908zm-26.169-9.085c4.164 0.338 7.274 3.355 9.944 6.271-6.015-0.041-11.447-2.875-17.125-4.43-77.433-15.595-96.689-18.257-102.66-21.432 12.412 0.181 75.699 13.204 84.378 13.575 8.685 1.065 16.787 4.809 25.462 6.016zm60.48-27.764c-2.394-0.041-4.777-0.051-7.161-0.072 2.731-1.207 5.463-2.394 8.276-3.417-0.399 1.136-0.767 2.302-1.115 3.489zm-43.733 5.33c5.894-4.853 8.852-2.344 32.163-11.222 4.583-1.545 9.115-3.458 13.974-3.928-7.257 4.21-41.046 14.363-46.137 15.15zm113.13-52.941c-4.358 4.88-8.01 11.038-14.547 13.268 3.56-5.708 9.585-8.981 14.547-13.268zm-65.8 44.603c4.092-3.979 10.128-4.777 15.56-5.299-4.695 2.967-10.261 3.959-15.56 5.299zm21.831-6.547c-1.534 1.176-3.376-1.279-1.494-2.179 1.484-1.258 3.325 1.279 1.494 2.179zm6.21-3.13c1.637-2.363 3.898-4.194 6.557-5.32-1.831 2.169-4 4.051-6.557 5.32zm4.818-10.762c-9.8 4.726-19.468 11.294-30.7 11.529 12.593-5.299 25.105-10.864 37.248-17.176 3.427-1.944 6.68-4.379 10.629-5.207-4.195 5.616-11.213 7.723-17.177 10.854zm28.43 21.616c-5.166-2.148-10.885-1.801-16.327-2.425 5.115-2.384 10.895-2.977 16.481-2.916 3.448 3.519 7.233 6.772 10.179 10.762-3.694-1.339-6.814-3.764-10.333-5.421zm41.759-1.678c5.33 1.575 10.21 4.89 16 4.47 7.199 4.473 28.589 12.188 29.831 24.511-1.006-0.693-15.213-13.859-23.048-17.657 1.361 3.918 4.491 6.67 7.048 9.8-5.811-2.312-10.087-7.069-14.844-10.926-0.154-1.698 0.061-3.468-0.982-4.9-2.476-0.235-4.164 2.24-5.923 3.683 2.128 3.13 4.736 5.923 6.619 9.238-15.113-6.658-12.826-14.077-33.933-19.775 3.458 3.939 7.806 7.12 10.557 11.672-5.729-2.885-11.376-5.964-16.931-9.156-3.949-2.435-8.798-2.363-12.941-4.297 5.026-1.196 1.702-2.501 38.547 3.337zm-53.197-21.33c-2.68 2.373-6.23 3.263-9.442 4.655 5.946-5.419 30.377-20.396 32.051-32.542 0.215-2.527 2.916-3.396 4.675-4.655-2.949 11.356-4.696 13.041-27.284 32.542zm38.158-11.457c-5.135 3.038-11.12 3.601-16.736 5.279 12.589-4.736 2.979-3.537 16.736-5.279zm171.05 58.168c-6.312-6.384-8.409-15.468-13.913-22.394-2.976-2.721-16.044-11.4-17.872-14.813 3.762 1.018 15.476 7.898 20.818 13.872 0.696-0.644 1.412-1.268 2.128-1.882 5 12.558 6.263 5.826 8.839 25.217zm-25.555-40.143c4.829 1.115 9.401 4.368 10.332 9.514-4.531-1.678-7.754-5.606-10.332-9.514zm18.793 10.578c-4.737-4.747-10.823-8.839-12.982-15.488 5.34 4.071 10.895 8.869 12.982 15.488zm-14.036-16.143c-2.394-1.115-4.307-2.926-5.749-5.095 2.169 1.381 4.174 3.018 5.749 5.095zm-83.17-23.498c15.999-0.538 53.79 11.127 68.674 21.238 2.005 1.514 4.143 2.834 6.373 4.01 0.154 0.675 0.45 2.015 0.604 2.691-78.982-40.316-119.76-20.503-140.19-17.647 9.746-9.419 54.836-9.875 64.542-10.292zm71.754 31.692c-6.301-2.266-83.422-41.962-150.47-6.527-0.256-0.511-0.767-1.545-1.023-2.067 1.401-1.217 2.742-2.547 4.368-3.458 1.483-0.174 2.977 0.082 4.471 0.225 61.461-29.794 132.05 0.808 142.66 11.827zm-33.473-38.577c1.985-1.095 4.184-1.023 6.22-0.092-2.077 0.173-4.154 0.225-6.22 0.092zm7.99-0.43c3.499-0.419 7.049-0.665 10.578-0.276-3.387 1.524-7.172 2.076-10.578 0.276zm54.741 11.693c14.954 5.839 31.991 3.563 42.342 14.026-7.604-1.69-34.066-8.22-42.342-14.026zm70.822 34.434c-5.995-6.353-11.632-13.043-17.411-19.57-23.151-11.867-25.578-10.584-40.572-14.557-3.468-0.982-7.56-0.419-10.199-3.294 26.834-3.099 62.879 19.199 68.182 37.421zm22.476-13.299c-5.228-3.714-11.621-5.893-15.918-10.834-3.977-0.145-4.867-0.193-24.215-8.46-11.826-6.188-74.298-13.857-90.935-12.225-1.504 0.276-2.547-1.023-3.795-1.504 11.969-1.207 24.204-2.404 36.143-0.184 7.23 1.25 41.509-0.149 69.094 13.698 11.53 5.82 41.422 17.008 42.925 30.68-6.373-0.91-8.512-7.836-13.299-11.171zm12.573-11.826c-0.726-0.051-2.159-0.164-2.885-0.215-0.072-1.156-0.123-2.292-0.174-3.407 1.013 1.198 2.035 2.405 3.059 3.622zm-47.703-24.501c-7.673-0.706-14.956-3.581-22.649-4.164-0.01-0.665-0.031-1.974-0.041-2.64 7.815 0.901 15.866 2.723 22.69 6.804zm-1.248 5.351c3.867 0.829 6.875 3.724 10.731 4.624 14.164 3.563 55.688 31.022 59.212 48.49-6.261-6.169-11.816-13.053-17.412-19.805-5.706-3.074-34.184-28.574-74.424-35.294-40.465-9.225-106.77-4.133-107.77-4.205 10.812-10.104 91.542-1.519 106.21 0.051 7.561 2.916 15.52 4.573 23.459 6.139zm-24.491-11.581c-6.281 0.634-12.491-0.604-18.578-1.954-41.165-6.133-103.8 3.475-109.26 2.967 15.185-7.133 106.85-11.648 127.84-1.013zm-101.16-69.738c0.655 0.051 1.985 0.133 2.639 0.184-1.974 2.373-3.949 4.757-6.128 6.967 1.044-2.445 2.272-4.798 3.489-7.151zm-60.388 72.388c1.463-1.872 3.396-3.049 5.811-3.151-1.811 1.279-3.744 2.353-5.811 3.151zm3.744-14.2c2.946-0.317 0.593 3.57-1.31 2.772-1.841-0.664-0.03-2.884 1.31-2.772zm3.489 9.443c3.437-3.621 7.325-7.028 12.102-8.726-2.701 4.388-7.212 7.314-12.102 8.726zm0.45-5.627c0.962-3.601 4.02-5.841 7.335-7.161-1.361 3.335-4.184 5.596-7.335 7.161zm3.376-10.925c2.066-1.084 4.072-2.281 6.158-3.314-1.309 4.665-6.332 6.046-9.739 8.808-1.76-0.184-3.703-1.115-5.361-0.112-3.274 2.25-4.481 6.384-7.499 8.89-2.23 1.473-4.747 2.455-7.141 3.652 7.87-12.031-1.302-0.992 20.634-21.811 37.947-37.844 30.712-35.132 38.086-39.427-1.006 6.624-29.322 34.16-35.138 43.314zm30.485-31.09c-3.765 7.857-9.78 14.486-16.45 19.99 4.665-7.284 10.548-13.698 16.45-19.99zm-12.081 32.051c1.432-3.355 3.509-8.552 8.143-6.905 0.164 0.328 0.481 0.982 0.645 1.32-2.64 2.26-5.658 4.071-8.788 5.585zm26.721-44.163c-1.654 5.01-14.631 20.733-15.57 21.739 4.081-7.99 9.912-14.854 15.57-21.739zm103.19 0.542c0.061 0.767 0.184 2.312 0.246 3.089-4.921-0.522-9.432-2.721-14.312-3.406-6.056-1.483-12.276-0.194-18.404-0.788 12.311-4.011 19.288-2.038 32.47 1.105zm-96.449 19.018c-2.394 2.527-5.852 3.652-8.757 5.483 19.875-19.984 14.248-16.167 20.644-27.232-1.831 8.255-6.864 15.14-11.887 21.749zm19.447-37.186c-2.496 4.552-4.358 9.432-7.079 13.862-0.03-5.576 2.957-10.353 7.079-13.862zm1.156 5.82c1.903 0.051 1.299 3.069-0.358 3.028-1.902-0.092-1.329-3.109 0.358-3.028zm1.658 13.514c-0.726 0.123-2.159 0.379-2.875 0.501 1.831-3.059 3.673-6.138 6.24-8.634-0.849 2.814-2.056 5.504-3.365 8.133zm98.372-55.672c2.67-3.192 5.944-5.862 9.626-7.795-2.066 3.775-5.248 6.987-9.626 7.795zm5.33-11.999c-4.092 5.32-8.614 10.332-13.493 14.936-0.113-7.571 6.71-13.197 13.493-14.936zm-13.228 3.826c-3.222 3.939-7.222 7.253-9.708 11.765-3.887 6.547-8.297 13.207-15.171 16.931 2.926-5.872 7.99-10.24 11.253-15.887 3.427-5.127 6.527-12.4 13.626-12.809zm-16.582 7.427c-3.795 6.568-7.867 13.094-13.361 18.383 2.343-6.527 6.107-12.43 9.596-18.383 1.238-0.011 2.496-0.011 3.765 0zm-9.729 1.309c0.573 3.12-2.118 4.972-4.072 6.905-4.399 4.041-6.445 10.005-10.987 13.933 1.402-8.991 8.747-15.048 15.059-20.838zm-15.028 7.12c1.586-2.026 4.143-2.721 6.476-3.458-0.755 1.002-11.326 13.891-13.565 15.662 1.022-4.715 4.061-8.593 7.089-12.204zm-11.796 7.069c-1.985 5.044-6.199 8.726-8.624 13.524-1.044 1.678-0.399 3.693-0.358 5.545-1.637 0.348-3.243 0.737-4.839 1.156 2.947-7.601 6.231-16.133 13.821-20.225zm-21.8 19.621c0.9-1.657 1.821-3.284 2.783-4.89 2.506-1.299 4.716-3.059 6.905-4.818-15.673 23.918-12.347 22.554-18.23 27.601 0.87-5.627 6.138-10.015 4.982-15.928-3.202 2.65-5.647 6.066-8.767 8.798 1.913-5.974 2.721-12.9 7.754-17.227-0.348 2.046-0.737 4.092-1.115 6.158 1.893 0.04 3.796 0.143 5.688 0.306zm-3.253-18.291c2.138-3.816 4.348-7.939 8.511-9.882-1.902 4.01-5.278 6.956-8.511 9.882zm10.015-10.24c2.015-4.379 6.363-6.895 9.125-10.721 0.798 0.153 1.616 0.317 2.435 0.501-3.447 3.816-6.721 8.102-11.56 10.22zm15.928-13.054c-0.89 1.187-2.997-0.164-1.893-1.361 0.84-1.237 2.998 0.164 1.893 1.361zm5.054-6.854c2.609-4.522 5.043-9.545 9.473-12.563-1.575 5.116-5.637 9.034-9.473 12.563zm11.09-13.514c1.176-4.43 4.614-7.724 8.583-9.739-1.893 3.98-4.88 7.345-8.583 9.739zm11.825-10.895c-0.788 0.031-2.353 0.072-3.13 0.102 5.463-6.343 12.736-10.547 18.823-16.184 1.473-1.504 3.57-1.76 5.555-2.046-3.425 7.158-13.696 7.427-21.248 18.128zm26.558-18.68c-1.381-0.082-2.752-0.143-4.102-0.184 1.34-1.238 2.731-2.404 4.143-3.56-0.041 1.238-0.051 2.486-0.041 3.744zm95.446-84.746c1.821 1.565 3.54 3.243 5.074 5.125-2.066-0.665-4.092-1.361-6.097-2.128 0.338-1.002 0.675-2.015 1.023-2.997zm-15.826-5.36c-0.348 0.992-0.685 1.985-1.003 3.008-5.821 2.486-12.03 3.867-17.882 6.292 3.98-6.63 12.215-7.224 18.885-9.3zm0.225 9.105c-2.158 1.432-4.706 1.565-7.182 1.187 2.272-0.952 4.717-1.249 7.182-1.187zm-18.496 5.79c-1.729 1.637-3.652 3.069-5.708 4.276 1.33-2.108 3.008-4.133 5.708-4.276zm-5.125-4.062c-5.821 6.675-6.358 7.186-19.55 15.488 2.102-3.265 13.366-13.55 19.55-15.488zm-18.148 2.282c-0.021 0.614-0.072 1.841-0.102 2.455-1.043 0.696-2.077 1.401-3.089 2.118-0.286-1.412-0.552-2.793-0.798-4.174 1.319-0.154 2.649-0.277 3.989-0.399zm-1.954 14.148c-0.072 0.655-0.205 1.954-0.276 2.599-1.217 0.563-2.424 1.125-3.621 1.698 1.268-1.463 2.577-2.875 3.897-4.297zm-3.304-12.757c-4.225 4.951-9.146 9.34-14.486 13.074 3.171-5.78 8.573-10.302 14.486-13.074zm-20.133 21.585c-7.262 21.311-11.525 21.721-17.135 29.555-0.655-0.184-1.289-0.348-1.923-0.501 6.751-9.432 13.37-18.967 19.058-29.054zm-21.534 39.437c5.002-7.344 16.375-15.913 23.335-31.253 2.864-6.701 7.908-12.123 11.089-18.649 0.91-2.302 3.182-3.294 5.33-4.143 0.266-0.593 0.808-1.77 1.074-2.363 0.43 0.685 0.859 1.381 1.31 2.097-23.292 31.23-22.919 42.228-42.138 54.311zm48.357-42.148c1.187-2.281 3.396-3.724 5.391-5.228-2.377 5.365-16.077 25.653-22.117 30.977 1.772-6.709 6.774-8.469 16.726-25.749zm-17.237 26.701c-2.159 4.511-4.481 9.176-8.46 12.389 1.391-4.952 4.889-8.87 8.46-12.389zm75.436 48.511c-1.32 1.023-3.079-1.187-1.627-2.138 1.289-1.054 3.039 1.156 1.627 2.138zm2.977-24.419c-1.453 1.095-3.417-1.309-1.76-2.322 1.422-1.126 3.386 1.268 1.76 2.322zm-34.864-62.158c-15.445 10.175-26.925 25.234-32.501 40.143-2.496 6.251-7.734 10.67-11.693 15.928-2.568 3.202-6.322 5.453-10.527 5.299 3.192-6.424 11.008-8.522 14.516-14.69 7.856-11.948 23.923-49.871 52.634-54.874 7.55-1.135 15.417-1.176 22.782 1.074 2.895 1.934 4.01 5.647 5.166 8.788-14.722-4.49-18.01-12.422-40.377-1.668zm40.143 16.593c1.054 0.818 2.118 1.657 3.192 2.506-1.432 0.061-2.854 0.133-4.256 0.215 0.337-0.921 0.685-1.831 1.064-2.721zm2.895 32.194c-1.432 1.309-3.611-1.033-2.404-2.425 1.319-1.36 3.652 1.075 2.404 2.425zm-6.005-57.994c0.082-0.655 0.225-1.954 0.307-2.609 0.931 0.113 1.872 0.246 2.834 0.389 1.361 3.877 3.744 7.304 4.992 11.243-3.192-2.558-5.494-5.965-8.133-9.023z"/>
    <path d="m124.26 570.68c2.537 0.348 5.074 0.644 7.632 0.88 1.34-3.028 2.783-6.015 3.806-9.166-2.772 0.45-5.616 0.931-8.174 2.107-1.28 1.954-2.211 4.102-3.264 6.179z"/>
    <path d="m60.964 601.88c-1.668 2.619-3.202 5.34-5.023 7.867-1.384-9.326 1.757-16.753-7.355-35.457-1.176 3.478-1.964 7.079-2.281 10.742 1.146 1.524 2.987 2.803 3.141 4.88 0.644 3.642-0.573 7.345 0.184 10.967 1.473 6.23 2.22 12.695 5.166 18.475 1.79-3.018 3.335-6.179 5.258-9.115-0.082 2.721-0.358 5.442-0.471 8.174 3.704-4.768 2.844-11.1 1.381-16.533z"/>
    <path d="m36.422 635.64c2.445 3.928 5.35 8.317 10.107 9.524 0.45-4.573-4.358-6.793-6.373-10.281-5.272-9.829-5.506-6.186-4.777-19.14-0.839-0.286-1.668-0.563-2.496-0.829-0.552-5.872-3.754-10.905-5.402-16.43 0.491-4.409 5.279-9.299 1.003-13.299-0.829 2.711-1.309 5.524-1.371 8.368-1.565 0.194-3.13 0.379-4.696 0.604 0.726 4.45 2.783 8.522 3.724 12.931 1.156 5.187 4.624 9.33 6.946 13.995-0.481 2.097-1.575 4-2.179 6.077 1.525 3.027 3.97 5.462 5.514 8.48z"/>
    <path d="m81.987 618.52c-1.023 5.289-1.575 10.69-1.76 16.071 2.64-4.962 2.302-10.66 1.76-16.071z"/>
    <path d="m113.53 688.68c-5.238 3.57-5.667 10.476-8.041 15.877 3.325-1.647 6.373-3.744 9.412-5.852-0.01-3.396-0.389-6.772-1.371-10.025z"/>
    <path d="m102.24 714.4c-1.258-1.023-2.517-2.056-3.795-3.038-1.197 4.9-1.136 10.015-3.355 14.68 6.363-3.54 12.716-7.478 17.667-12.88-0.962-0.726-1.933-1.432-2.905-2.128 2.332-2.527 3.233-5.852 3.253-9.238-11.736 7.033-9.51 8.5-10.865 12.604z"/>
    <path d="m108.39 723.45c3.069-2.537 8.092-3.836 8.01-8.655-2.916 1.003-5.432 2.793-7.713 4.829-8.067 6.917-18.46 7.843-14.046 18.24-2.046 2.721-5.125 4.164-7.939 5.933-3.014 11.781-0.259 9.853-3.386 21.606 0.829 0.532 1.657 1.064 2.486 1.616-1.627 2.271-2.813 4.818-3.11 7.632 7.877-4.696 13.637-11.969 20.235-18.169-0.471-0.276-1.402-0.839-1.862-1.115 1.974-0.409 3.949-0.788 5.944-1.095-3.891-9.279 8.043-15.526 8.225-31.488-6.783 3.182-11.703 9.105-18.148 12.849 3.498-4.285 7.007-8.653 11.304-12.183zm-5.146 26.373c-4.113 4.491-8.399 8.941-13.33 12.532 2.773-5.677 8.44-8.91 13.33-12.532z"/>
    <path d="m86.979 735.95c0.133 1.698 0.276 3.396 0.45 5.115 0.675-1.565 1.299-3.13 1.903-4.716-0.583-0.092-1.77-0.296-2.353-0.399z"/>
    <path d="m1020 797.74c-0.512-2.425-1.473-4.685-2.558-6.885-0.409 0.563-1.228 1.698-1.637 2.271 1.341 1.586 2.651 3.182 4.195 4.614z"/>
    <path d="m103.72 924.84c7.969-4 8.307-14.117 6.66-21.749-5.438 10.409-7.683 11.45-6.66 21.749z"/>
    <path d="m961.17 1292.7c1.187-1.483-1.299-3.325-2.322-1.719-1.187 1.433 1.278 3.315 2.322 1.719z"/>
    <path d="m41.343 1352c0.041 0.471 0.133 1.412 0.184 1.882-3.233 1.238-6.435 2.547-9.463 4.235 14.623 14.385 33.404 14.288 39.641 17.698-3.846 3.263-8.297 5.667-12.358 8.634 9.897 5.776 38.001 7.907 50.782 0.031 2.363 1.197 4.256 3.141 6.598 4.399 3.877 0.675 4.89-4.143 4.164-7.008-21.561-13.598-0.503-19.057-41.033-53.565 1.32 5.125 4 9.964 3.806 15.406-12.966-10.391-6.725-11.294-33.289-23.099 0.419 3.621 1.176 7.222 1.412 10.885-10.517-5.35-22.005-8.409-33.534-10.639 2.528 13.054 11.111 25.095 23.09 31.141zm29.401 28.91c3.795-1.657 7.939-1.719 11.58 0.409-3.856-0.184-7.713-0.46-11.58-0.409zm-31.641-41.115c0.113-2.322 0.174-4.624 0.419-6.905 2.987 4.634 4.061 10.291 7.662 14.557-0.123-2.844-0.512-5.647-0.818-8.45 2.65 3.979 5.043 8.133 7.56 12.215 0.44-0.696 1.309-2.077 1.749-2.762 0.89 1.218 1.78 2.445 2.67 3.693 0.46-0.757 1.371-2.271 1.821-3.018 8.671 22.025 5.285 15.607 11.417 18.445-1.657-7.693-4.788-14.997-6.025-22.793 4.501 7.11 7.171 15.181 10.435 22.885 1.545 0.501 3.182 0.655 4.788 0.941-0.266-4.215-1.299-8.297-2.731-12.245 8.831 15.84 6.868 21.182 13.33 24.921-0.286-2.936-0.777-5.821-1.146-8.716 2.026 3.427 3.939 6.936 5.811 10.465-3.161 0.092-6.435 0.44-9.483-0.573-2.332-3.11-3.304-6.977-4.174-10.68-3.478 0.102-7.161 1.177-10.476-0.358-7.611-2.793-15.795-5.105-21.943-10.67 2.281 0.47 4.522 1.084 6.772 1.698-0.501-2.813-1.115-5.586-1.739-8.358-0.624 0.818-1.872 2.465-2.496 3.284-1.698-2.476-3.171-5.125-5.269-7.274-2.946-3.141-7.662-3.611-10.598-6.742-3.069-3.652-7.857-6.414-7.826-11.775 2.015 0.675 4.123 1.197 6.005 2.21 1.666 1.811 2.873 3.99 4.285 6.005z"/>
    <path d="m63.389 1364.4c-0.419-4.113-1.043-8.419-4.123-11.468-0.153 3.816 0.716 7.56 1.545 11.263 0.644 0.052 1.933 0.154 2.578 0.205z"/>
    <path d="m880.87 1358.2c-2.701 1.095-4.522 3.263-4.808 6.22 2.179-1.586 3.775-3.765 4.808-6.22z"/>
</svg>